<svg width="108" height="40" viewBox="0 0 108 40" fill="none" xmlns="http://www.w3.org/2000/svg">
<g clip-path="url(#clip0_1374_1271)">
<path d="M6.86067 29.699L0 10.5264H5.47138L9.72498 23.8637L13.6956 10.5351H19.0555L12.1648 29.7077L6.86067 29.699Z" fill="#383838"/>
<path d="M77.5 30.1749C76.1499 30.1887 74.8102 29.9389 73.5567 29.4395C72.3811 28.9651 71.3158 28.2549 70.427 27.3532C69.5369 26.4451 68.8356 25.3712 68.3629 24.1927C67.3774 21.6394 67.3774 18.8128 68.3629 16.2595C68.8335 15.0838 69.5353 14.0137 70.427 13.1119C71.3177 12.2135 72.3825 11.5052 73.5567 11.03C76.093 10.0465 78.9071 10.0465 81.4434 11.03C82.6204 11.5035 83.6898 12.2078 84.588 13.1012C85.4859 13.998 86.1884 15.0695 86.6522 16.2488C87.6178 18.8057 87.6178 21.6251 86.6522 24.1819C86.1877 25.3635 85.4861 26.4379 84.5905 27.3401C83.6949 28.2421 82.6241 28.9529 81.4434 29.4287C80.1906 29.9319 78.8509 30.1852 77.5 30.1749ZM77.5 25.4577C78.3991 25.487 79.2857 25.2407 80.04 24.7525C80.7344 24.2786 81.2816 23.6205 81.6197 22.8527C81.9764 22.0188 82.16 21.1218 82.16 20.2154C82.16 19.309 81.9764 18.412 81.6197 17.5781C81.2805 16.811 80.7334 16.1532 80.04 15.6784C79.2831 15.1885 78.3936 14.9415 77.4914 14.9709C76.5991 14.9438 75.7197 15.1908 74.9731 15.6784C74.2773 16.1549 73.7259 16.8118 73.378 17.5781C73.0118 18.4095 72.8228 19.3075 72.8228 20.2154C72.8228 21.1233 73.0118 22.0213 73.378 22.8527C73.727 23.6208 74.282 24.2781 74.9817 24.7525C75.7269 25.2439 76.6065 25.494 77.5 25.4685V25.4577Z" fill="#383838"/>
<path d="M90.3973 29.6969V10.5264H95.3882V17.7006L101.002 10.5264H106.839L100.577 17.918L107.826 29.7077H101.763L97.1662 21.9443L95.3903 24.0726V29.7077L90.3973 29.6969Z" fill="#383838"/>
<path d="M47.8711 39.9965V36.0234H52.9835V40L47.8711 39.9965Z" fill="#FFD5BB"/>
<path d="M47.8711 33.6755V14.9707H52.8643V29.2577H61.5817V33.6842L47.8711 33.6755Z" fill="#FF6100"/>
<path d="M47.8711 12.623V0H52.7797V8.2043H61.3493V12.6316L47.8711 12.623Z" fill="#FFD5BB"/>
<path opacity="0.15" d="M22.425 0V40" stroke="#646B6A"/>
<path opacity="0.15" d="M45.1986 0V40" stroke="#646B6A"/>
<path opacity="0.15" d="M64.9513 0V40" stroke="#646B6A"/>
<path d="M25.0974 19.4064V0H29.6468L36.8823 10.8278V0H41.8291V19.4152H37.5553L30.04 8.26611V19.4152L25.0974 19.4064Z" fill="#FF6100"/>
<path d="M25.0974 39.9913V21.0526H29.6468L36.8823 31.6194V21.0526H41.8291V40H37.5553L30.04 29.1195V40L25.0974 39.9913Z" fill="#FFD5BB"/>
</g>
<defs>
<clipPath id="clip0_1374_1271">
<rect width="107.826" height="40" fill="white"/>
</clipPath>
</defs>
</svg>
