<svg width="150" height="44" viewBox="0 0 150 44" fill="none" xmlns="http://www.w3.org/2000/svg">
<path d="M143.87 43.4436H5.63241C2.8296 43.4436 0.562622 41.1698 0.562622 38.3739V5.62631C0.562622 2.8235 2.83647 0.556519 5.63241 0.556519H143.877C146.68 0.556519 148.947 2.83037 148.947 5.62631V38.3739C148.947 41.1767 146.673 43.4436 143.87 43.4436Z" fill="black"/>
<path d="M143.87 44H5.63233C2.52726 44 0.00610352 41.4788 0.00610352 38.3738V5.62623C0.00610352 2.52116 2.52726 0 5.63233 0H143.877C146.982 0 149.503 2.52116 149.503 5.62623V38.3738C149.496 41.4788 146.975 44 143.87 44ZM5.63233 1.10601C3.14553 1.10601 1.11898 3.13255 1.11898 5.61936V38.3669C1.11898 40.8537 3.14553 42.8802 5.63233 42.8802H143.877C146.364 42.8802 148.39 40.8537 148.39 38.3669V5.62623C148.39 3.13255 146.364 1.11288 143.877 1.11288H5.63233V1.10601Z" fill="#A7A9AC"/>
<path d="M49.7766 12.5096L49.1514 14.5636H47.7913L50.1063 7.33679H51.7894L54.1388 14.5636H52.7237L52.071 12.5165H49.7766V12.5096ZM51.8443 11.5135L51.2742 9.73429C51.1368 9.29464 51.02 8.80002 50.9101 8.38098H50.8895C50.7796 8.80002 50.6765 9.30151 50.546 9.73429L49.9895 11.5135H51.8443Z" fill="white"/>
<path d="M56.1105 9.33582L56.9555 11.9875C57.1066 12.4478 57.2096 12.8668 57.3127 13.2927H57.347C57.4432 12.8668 57.56 12.4546 57.7042 11.9875L58.5423 9.33582H59.9231L57.9309 14.5567H56.6326L54.6885 9.33582H56.1105Z" fill="white"/>
<path d="M65.1784 13.3065C65.1784 13.7805 65.199 14.2408 65.2609 14.5637H64.0724L63.9763 13.9866H63.9419C63.6328 14.3919 63.0832 14.6804 62.3962 14.6804C61.3452 14.6804 60.7544 13.9179 60.7544 13.1279C60.7544 11.8227 61.9222 11.1426 63.8526 11.1563V11.0739C63.8526 10.7304 63.7152 10.1602 62.7878 10.1602C62.2726 10.1602 61.7368 10.3182 61.3864 10.5449L61.1322 9.68622C61.5169 9.45265 62.197 9.22595 63.0214 9.22595C64.6976 9.22595 65.1784 10.2907 65.1784 11.438V13.3065ZM63.8938 12.0082C62.9595 11.9944 62.0734 12.1936 62.0734 12.9836C62.0734 13.4989 62.4031 13.7324 62.8222 13.7324C63.358 13.7324 63.7358 13.389 63.8595 13.0111C63.8938 12.9149 63.8938 12.8188 63.8938 12.7226V12.0082Z" fill="white"/>
<path d="M67.6995 8.58709C67.2598 8.58709 66.9713 8.26421 66.9713 7.87952C66.9713 7.47421 67.2736 7.1582 67.7132 7.1582C68.1666 7.1582 68.4414 7.46734 68.4552 7.87952C68.4552 8.26421 68.1666 8.58709 67.7132 8.58709H67.6995ZM67.0469 14.5637V9.34275H68.3658V14.5637H67.0469Z" fill="white"/>
<path d="M70.2618 6.93823H71.5808V14.5635H70.2618V6.93823Z" fill="white"/>
<path d="M77.5438 13.3065C77.5438 13.7805 77.5644 14.2408 77.6262 14.5637H76.4378L76.3416 13.9866H76.3073C75.9981 14.3919 75.4486 14.6804 74.7616 14.6804C73.7105 14.6804 73.1198 13.9179 73.1198 13.1279C73.1198 11.8227 74.2876 11.1426 76.218 11.1563V11.0739C76.218 10.7304 76.0806 10.1602 75.16 10.1602C74.6448 10.1602 74.109 10.3182 73.7586 10.5449L73.5044 9.68622C73.8891 9.45265 74.5692 9.22595 75.3936 9.22595C77.0629 9.22595 77.5507 10.2907 77.5507 11.438V13.3065H77.5438ZM76.2523 12.0082C75.318 11.9944 74.4319 12.1936 74.4319 12.9836C74.4319 13.4989 74.7616 13.7324 75.1806 13.7324C75.7165 13.7324 76.0943 13.389 76.218 13.0111C76.2523 12.9149 76.2523 12.8188 76.2523 12.7226V12.0082Z" fill="white"/>
<path d="M79.4054 6.93823H80.7243V10.057H80.7449C81.0678 9.55556 81.638 9.21895 82.4211 9.21895C83.6989 9.21895 84.6057 10.2837 84.5988 11.8706C84.5988 13.746 83.4103 14.6803 82.2288 14.6803C81.5555 14.6803 80.951 14.4193 80.5801 13.7804H80.5595L80.4908 14.5635H79.3641C79.3847 14.2063 79.4054 13.6293 79.4054 13.1072V6.93823ZM80.7243 12.4065C80.7243 12.5164 80.7381 12.6194 80.7587 12.7156C80.8961 13.2514 81.3563 13.6361 81.9265 13.6361C82.7509 13.6361 83.2592 12.9835 83.2592 11.9187C83.2592 10.9982 82.8196 10.2425 81.9402 10.2425C81.4044 10.2425 80.9098 10.6272 80.7724 11.2043C80.7518 11.3004 80.7312 11.4172 80.7312 11.5478V12.4065H80.7243Z" fill="white"/>
<path d="M86.1514 6.93823H87.4703V14.5635H86.1514V6.93823Z" fill="white"/>
<path d="M90.3075 12.3172C90.3418 13.2583 91.0769 13.6705 91.915 13.6705C92.5264 13.6705 92.9523 13.5743 93.3645 13.4369L93.5568 14.3369C93.1034 14.5292 92.4851 14.6666 91.7364 14.6666C90.0396 14.6666 89.0435 13.6293 89.0435 12.0287C89.0435 10.5792 89.9228 9.21899 91.599 9.21899C93.2958 9.21899 93.8522 10.6135 93.8522 11.7608C93.8522 12.0081 93.8316 12.2004 93.811 12.3172H90.3075ZM92.6019 11.3967C92.6157 10.9158 92.3958 10.1189 91.5165 10.1189C90.699 10.1189 90.3556 10.8608 90.3075 11.3967H92.6019Z" fill="white"/>
<path d="M100.358 14.6804C98.8876 14.6804 97.7404 13.6705 97.7404 11.9875C97.7404 10.27 98.867 9.21899 100.44 9.21899C101.993 9.21899 103.037 10.3113 103.037 11.8982C103.037 13.8148 101.684 14.6735 100.365 14.6735H100.358V14.6804ZM100.399 13.7255C101.148 13.7255 101.677 12.9973 101.677 11.9325C101.677 11.115 101.313 10.1739 100.413 10.1739C99.4784 10.1739 99.1006 11.0875 99.1006 11.9531C99.1006 12.9629 99.602 13.7255 100.385 13.7255H100.399Z" fill="white"/>
<path d="M104.59 10.8953C104.59 10.2976 104.569 9.78926 104.548 9.34274H105.696L105.757 10.1259H105.792C106.025 9.72057 106.595 9.22595 107.468 9.22595C108.382 9.22595 109.323 9.81674 109.323 11.4655V14.5637H108.004V11.6097C108.004 10.8609 107.722 10.2907 107.008 10.2907C106.486 10.2907 106.121 10.6686 105.977 11.0601C105.936 11.1701 105.915 11.3281 105.915 11.4792V14.5637H104.596V10.8953H104.59Z" fill="white"/>
<path d="M115.395 7.99622V9.33579H116.653V10.325H115.395V12.6195C115.395 13.2652 115.567 13.5812 116.069 13.5812C116.302 13.5812 116.433 13.5675 116.584 13.5263L116.604 14.5224C116.412 14.5979 116.055 14.6598 115.65 14.6598C115.155 14.6598 114.763 14.5018 114.516 14.2338C114.228 13.9316 114.097 13.4507 114.097 12.7637V10.3182H113.355V9.32892H114.097V8.35344L115.395 7.99622Z" fill="white"/>
<path d="M118.116 6.93823H119.435V10.0502H119.455C119.613 9.80287 119.84 9.59678 120.108 9.45939C120.376 9.30826 120.685 9.22582 121.022 9.22582C121.908 9.22582 122.842 9.81661 122.842 11.4859V14.5635H121.523V11.6233C121.523 10.8745 121.241 10.2906 120.513 10.2906C119.998 10.2906 119.634 10.6341 119.483 11.0325C119.442 11.1493 119.428 11.2936 119.428 11.431V14.5635H118.109V6.93823H118.116Z" fill="white"/>
<path d="M125.652 12.3172C125.686 13.2583 126.421 13.6705 127.259 13.6705C127.871 13.6705 128.297 13.5743 128.709 13.4369L128.901 14.3369C128.448 14.5292 127.829 14.6666 127.081 14.6666C125.384 14.6666 124.388 13.6293 124.388 12.0287C124.388 10.5792 125.267 9.21899 126.943 9.21899C128.64 9.21899 129.196 10.6135 129.196 11.7608C129.196 12.0081 129.176 12.2004 129.155 12.3172H125.652ZM127.946 11.3967C127.96 10.9158 127.74 10.1189 126.861 10.1189C126.043 10.1189 125.7 10.8608 125.652 11.3967H127.946Z" fill="white"/>
<path d="M33.3652 21.5707C33.3308 17.9916 36.2916 16.2536 36.429 16.1712C34.7528 13.7256 32.1492 13.389 31.2356 13.3615C29.051 13.1348 26.9352 14.6667 25.8223 14.6667C24.6888 14.6667 22.9714 13.3821 21.1303 13.4165C18.7535 13.4577 16.5346 14.8316 15.3118 16.9612C12.7975 21.3165 14.6729 27.7122 17.0841 31.2363C18.2932 32.9606 19.7015 34.8841 21.5425 34.8154C23.3424 34.7398 24.0156 33.6681 26.1933 33.6681C28.3503 33.6681 28.9823 34.8154 30.8646 34.7742C32.8019 34.7398 34.0178 33.043 35.1788 31.305C36.5733 29.3265 37.1297 27.3824 37.1572 27.2863C37.116 27.2794 33.4064 25.8574 33.3652 21.5707Z" fill="white"/>
<path d="M29.8135 11.0533C30.7821 9.83735 31.4485 8.18864 31.263 6.51245C29.8616 6.57428 28.103 7.48107 27.0931 8.66952C26.2001 9.7137 25.3963 11.4311 25.6024 13.0386C27.1893 13.1554 28.8037 12.2417 29.8135 11.0533Z" fill="white"/>
<path d="M59.4355 34.5406H56.9212L55.5473 30.2128H50.766L49.4539 34.5406H47.0083L51.7483 19.8121H54.6748L59.4355 34.5406ZM55.1351 28.3992L53.8917 24.5522C53.7612 24.1606 53.5138 23.2332 53.1498 21.7768H53.1085C52.9643 22.402 52.7307 23.3294 52.4078 24.5522L51.185 28.3992H55.1351Z" fill="white"/>
<path d="M71.629 29.0997C71.629 30.9064 71.1413 32.3353 70.1658 33.3795C69.2934 34.3138 68.208 34.774 66.9096 34.774C65.5082 34.774 64.5052 34.2726 63.8938 33.2696H63.8526V38.8615H61.4894V27.4167C61.4894 26.2832 61.462 25.1153 61.4001 23.92H63.4748L63.6053 25.6031H63.6534C64.4365 24.3322 65.6318 23.7002 67.2393 23.7002C68.4896 23.7002 69.5407 24.1948 70.3719 25.184C71.21 26.1801 71.629 27.4854 71.629 29.0997ZM69.2247 29.189C69.2247 28.1586 68.9911 27.2999 68.524 26.6335C68.0156 25.9328 67.3286 25.5825 66.4699 25.5825C65.886 25.5825 65.3571 25.7748 64.883 26.1595C64.409 26.5511 64.0999 27.0526 63.9557 27.6777C63.8801 27.9662 63.8457 28.2067 63.8457 28.399V30.1714C63.8457 30.9408 64.0793 31.5934 64.5533 32.1224C65.0273 32.6582 65.6456 32.9192 66.4012 32.9192C67.2874 32.9192 67.9813 32.5826 68.4759 31.8957C68.9773 31.2156 69.2247 30.3088 69.2247 29.189Z" fill="white"/>
<path d="M83.8432 29.0997C83.8432 30.9064 83.3555 32.3353 82.38 33.3795C81.5076 34.3138 80.4222 34.774 79.1238 34.774C77.7293 34.774 76.7194 34.2726 76.108 33.2696H76.0668V38.8615H73.7105V27.4167C73.7105 26.2832 73.683 25.1153 73.6212 23.92H75.6958L75.8264 25.6031H75.8745C76.6576 24.3322 77.8529 23.7002 79.4535 23.7002C80.7038 23.7002 81.748 24.1948 82.5861 25.184C83.4242 26.1801 83.8432 27.4854 83.8432 29.0997ZM81.4389 29.189C81.4389 28.1586 81.2053 27.2999 80.7382 26.6335C80.2298 25.9328 79.5428 25.5825 78.6841 25.5825C78.1002 25.5825 77.5713 25.7748 77.0972 26.1595C76.6232 26.5511 76.3141 27.0526 76.1699 27.6777C76.0943 27.9662 76.0599 28.2067 76.0599 28.399V30.1714C76.0599 30.9408 76.2935 31.5934 76.7675 32.1224C77.2415 32.6582 77.8529 32.9192 78.6154 32.9192C79.5016 32.9192 80.1955 32.5826 80.6901 31.8957C81.1916 31.2156 81.4389 30.3088 81.4389 29.189Z" fill="white"/>
<path d="M97.5 30.4119C97.5 31.6622 97.0673 32.6857 96.1879 33.4689C95.2262 34.3276 93.8935 34.7604 92.1761 34.7604C90.5892 34.7604 89.3183 34.4581 88.3566 33.8467L88.9061 31.882C89.9434 32.5071 91.0769 32.8231 92.3203 32.8231C93.2065 32.8231 93.9004 32.6239 94.395 32.2255C94.8896 31.8202 95.1369 31.2843 95.1369 30.618C95.1369 30.0203 94.9308 29.5188 94.5255 29.1067C94.1202 28.6945 93.4401 28.3166 92.4921 27.9663C89.916 27.0045 88.6245 25.5963 88.6245 23.7415C88.6245 22.5324 89.0779 21.5363 89.9778 20.7669C90.8777 19.9907 92.0799 19.606 93.5843 19.606C94.9239 19.606 96.0368 19.8395 96.923 20.3067L96.3322 22.2302C95.501 21.7768 94.5598 21.5501 93.5088 21.5501C92.6776 21.5501 92.0318 21.7562 91.5647 22.1615C91.1731 22.5256 90.9739 22.9721 90.9739 23.4942C90.9739 24.0781 91.2006 24.559 91.6471 24.9368C92.0387 25.2871 92.7531 25.665 93.7904 26.0771C95.0545 26.5855 95.9887 27.1832 96.5864 27.8701C97.1978 28.5433 97.5 29.3952 97.5 30.4119Z" fill="white"/>
<path d="M105.297 25.6924H102.7V30.8515C102.7 32.1636 103.161 32.8163 104.081 32.8163C104.5 32.8163 104.85 32.7819 105.125 32.7063L105.187 34.4993C104.727 34.6711 104.109 34.7604 103.353 34.7604C102.419 34.7604 101.69 34.4787 101.168 33.9085C100.646 33.3383 100.378 32.3835 100.378 31.0439V25.6924H98.8258V23.9201H100.378V21.976L102.693 21.2753V23.9201H105.29V25.6924H105.297Z" fill="white"/>
<path d="M117.03 29.1479C117.03 30.7829 116.563 32.1225 115.636 33.1666C114.66 34.2452 113.362 34.781 111.748 34.781C110.188 34.781 108.945 34.2658 108.024 33.2285C107.097 32.198 106.637 30.8928 106.637 29.3196C106.637 27.6709 107.111 26.3245 108.066 25.2803C109.02 24.2292 110.305 23.7072 111.919 23.7072C113.479 23.7072 114.729 24.2224 115.677 25.2597C116.584 26.2627 117.03 27.5541 117.03 29.1479ZM114.585 29.2235C114.585 28.248 114.372 27.403 113.953 26.7023C113.458 25.8573 112.751 25.4314 111.837 25.4314C110.889 25.4314 110.168 25.8573 109.673 26.7023C109.247 27.403 109.041 28.2549 109.041 29.2647C109.041 30.2402 109.247 31.0851 109.673 31.7858C110.181 32.6308 110.896 33.0567 111.816 33.0567C112.716 33.0567 113.424 32.6239 113.932 31.7652C114.365 31.0508 114.585 30.199 114.585 29.2235Z" fill="white"/>
<path d="M124.697 25.9947C124.463 25.9534 124.216 25.9328 123.955 25.9328C123.124 25.9328 122.485 26.2488 122.032 26.874C121.64 27.4304 121.441 28.1242 121.441 28.9692V34.5405H119.084L119.105 27.2655C119.105 26.0427 119.078 24.9299 119.016 23.92H121.07L121.159 25.9534H121.221C121.468 25.2527 121.867 24.6894 122.402 24.2704C122.925 23.8925 123.495 23.7002 124.106 23.7002C124.326 23.7002 124.518 23.7139 124.697 23.7414V25.9947Z" fill="white"/>
<path d="M135.249 28.7288C135.249 29.1548 135.221 29.5051 135.166 29.8005H128.09C128.118 30.8516 128.461 31.6484 129.114 32.2049C129.712 32.6995 130.481 32.9468 131.429 32.9468C132.473 32.9468 133.428 32.7819 134.294 32.4453L134.665 34.0871C133.662 34.5268 132.473 34.7466 131.099 34.7466C129.458 34.7466 128.159 34.2589 127.225 33.2903C126.291 32.3217 125.817 31.0233 125.817 29.3883C125.817 27.7877 126.256 26.455 127.129 25.3902C128.042 24.2567 129.286 23.6865 130.838 23.6865C132.37 23.6865 133.531 24.2567 134.314 25.3902C134.94 26.2901 135.249 27.403 135.249 28.7288ZM133.002 28.1174C133.016 27.4167 132.865 26.8122 132.542 26.3039C132.137 25.6512 131.505 25.3215 130.66 25.3215C129.89 25.3215 129.265 25.6444 128.784 26.2832C128.393 26.7916 128.159 27.403 128.09 28.1174H133.002Z" fill="white"/>
</svg>
