<?xml version="1.0" encoding="utf-8"?>
<!-- Generator: Adobe Illustrator 27.1.0, SVG Export Plug-In . SVG Version: 6.00 Build 0)  -->
<svg version="1.1" id="Design" xmlns="http://www.w3.org/2000/svg" xmlns:xlink="http://www.w3.org/1999/xlink" x="0px" y="0px"
	 viewBox="0 0 1127 359.5" style="enable-background:new 0 0 1127 359.5;" xml:space="preserve">
<rect x="0" y="0" style="fill:none;" width="1127" height="359.5"/>
<path style="fill:#002F81;" d="M581.7,243.9h30.7v-13.6h-30.7v-19.9h33.7v-14.3H564v61.4c0,13.1,8.4,21.3,20.1,21.3h32.7v-14.3H593
	c-7.2,0-11.3-2.8-11.3-10.3V243.9z M1046.3,132.2h27.1v-13.6h-27.1V98.7h29.9V84.4h-47.6v61.4c0,13.1,8.4,21.3,20.1,21.3h28.7v-14.3
	h-19.8c-7.2,0-11.3-2.8-11.3-10.3V132.2z M453.8,132.2h27.1v-13.6h-27.1V98.7h29.9V84.4h-47.6v61.4c0,13.1,8.4,21.3,20.1,21.3h28.7
	v-14.3h-19.8c-7.2,0-11.3-2.8-11.3-10.3V132.2z M404.7,135.5c-7.9-17.7-14.5-34.5-23.3-51.2H361V167h15.9v-53.6h0.2
	c8.4,16.7,16.1,34.3,24.4,53.6h19.3V84.4h-15.9v51.2H404.7z M865.9,135.5c-7.9-17.7-14.5-34.5-23.3-51.2h-20.4V167h15.9v-53.6h0.2
	c8.4,16.7,16.1,34.3,24.4,53.6H882V84.4h-15.9v51.2H865.9z M897.4,84.4V167h24.5c22.8,0,35.8-14.9,35.8-41.3s-13-41.3-35.8-41.3
	H897.4z M915.3,152.1V99.3h6.5c11.6,0,17.4,8.6,17.4,26.4c0,17.7-5.8,26.4-17.4,26.4H915.3z M587.1,132.2h27.1v-13.6h-27.1V98.7H617
	V84.4h-47.6v61.4c0,13.1,8.4,21.3,20.1,21.3h28.7v-14.3h-19.8c-7.2,0-11.3-2.8-11.3-10.3V132.2z M1013.3,101.2V86
	c-5.8-1.7-13.3-2.9-19.1-2.9c-17.1,0-26.9,8.8-26.9,24.4c0,11.6,5.8,19,18.4,24.4c10.1,4.3,13,8.3,13,13.3s-3.4,8.4-10.3,8.4
	c-5.4,0-14.8-2.4-20.5-5.4h-0.4v15.7c6.6,2.8,14.9,4.3,23.1,4.3c16.2,0,26.7-9,26.7-24.3c0-13.8-7.2-19.2-19.6-25.1
	c-7.6-3.6-12.2-6.6-12.2-12.7c0-5,3.8-8.8,9.7-8.8c6.4,0,12.7,2,17.9,3.8H1013.3z M734,278.6c2.5,0.7,8.8,1.4,14.1,1.4
	c15.5,0,24.5-8,24.5-23.3v-60.6h-18.3v58.4c0,7-4.2,10.3-11.4,10.3c-2.8,0-6.7-0.5-8.9-1.1V278.6z M447.3,210.4
	c-14.3,0-19.1,11.2-19.1,26.9c0,16.2,4.8,26.9,19.1,26.9c14.1,0,18.9-10.7,18.9-26.9C466.2,221.5,461.4,210.4,447.3,210.4z
	 M490.3,196.1v15.4h21.4v67.3h18v-67.3h21.4v-15.4H490.3z M447.2,279.9c-24,0-37.6-16.8-37.6-42.8c0-26.2,13.2-42.5,37.6-42.5
	c24.4,0,37.6,16.5,37.6,42.6C484.8,263.2,471.3,279.9,447.2,279.9z M693.5,278.7c-3.6-14.8-11.8-25.8-18.3-32.9
	c9-4.3,14.4-13,14.4-23.4c0-16.7-10.9-26.3-29.3-26.3h-29.7v82.6h18v-27.1h9.8c6.6,5.2,12.7,15.3,16.3,27.1H693.5z M672.1,224.3
	c0,8.9-5.2,13.8-14.4,13.8h-9v-27.7h9C666.9,210.4,672.1,215.4,672.1,224.3z M361,257.1c0,13.3,8.5,21.6,20.4,21.6h22.8v-14.9h-13.8
	c-7.3,0-11.4-2.8-11.4-10.6v-57.2h-18V257.1z M698.4,145.4c0,13.3,7.9,21.6,18.9,21.6H738v-14.9h-11.5c-6.2,0-10.1-2.8-10.1-10.6
	V84.4h-18V145.4z M765.1,136.4v13.9h33.7v-13.9H765.1z M779.8,98c6.5,20.5,9.8,43.2,14.2,69.1h18.4c-4.2-26.4-10.8-58-19.2-82.6
	h-26.3c-7.3,20.8-16,59.8-19.7,82.6h18.4c2.5-19.3,8.2-49,14.1-69.1H779.8z M689,167c-3.2-14.8-10.8-25.8-17.5-32.9
	c9.1-4.3,14.1-13,14.1-23.4c0-16.7-10.1-26.3-27.1-26.3H631V167h18v-27.1h8c5.4,5.2,10.4,15.3,13.5,27.1H689z M668,112.6
	c0,8.5-4.4,13.8-12,13.8h-7V98.7h7C663.6,98.7,668,104.1,668,112.6z M722.6,196.1h-18v82.6h18V196.1z M497.9,84.4V167h24.5
	c22.8,0,35.8-14.9,35.8-41.3s-13-41.3-35.8-41.3H497.9z M515.8,152.1V99.3h6.5c11.6,0,17.4,8.6,17.4,26.4c0,17.7-5.8,26.4-17.4,26.4
	H515.8z"/>
<path style="fill:#FFFFFF;" d="M309.1,256.2c-13.5,23-31.8,41.3-54.9,54.8c-23.1,13.5-48.4,20.2-75.9,20.2
	c-27.2,0-52.2-6.9-74.8-20.8c-22.6-13.9-40.5-32.5-53.5-56c-13-23.5-19.5-49-19.5-76.4c0-27.2,6.5-52,19.5-74.3
	c13-22.3,30.8-39.8,53.3-52.6c22.5-12.8,47.5-19.2,75-19.2c27.5,0,52.8,6.7,75.9,20.1c23.1,13.4,41.4,31.4,54.9,54.2
	c13.5,22.8,20.2,47.8,20.2,75C329.3,208.2,322.5,233.2,309.1,256.2z"/>
<g>
	<path style="fill:#FF9400;" d="M267.6,258.5c-27.2,23.6-58.8,36.6-94.7,39c-35.9,2.4-68.1-7.3-96.5-29.3
		c29.1,32.5,63.4,48.6,102.6,48.2c39.3-0.4,72.6-14.6,100.1-42.8c27.5-28.2,39.6-63.1,36.5-104.8C310.8,205,294.8,234.9,267.6,258.5
		z"/>
</g>
<path style="fill:#D70028;" d="M245,60.3c-35.1-17.9-71.3-21-108.8-9.2c-37.5,11.8-64.8,37.2-81.9,76.3c20-30.6,47.5-50.1,82.4-58.5
	c34.9-8.4,69.1-5.4,102.5,9.2c33.4,14.6,57.8,38,73.2,70.3C302.5,107.6,280.1,78.2,245,60.3z"/>
<path style="fill:#002F81;" d="M122.7,89.4c-31.3,11.8-53.1,32.9-65.4,63.2c-12.3,30.4-9.6,63.1,8,98.3c-8.2-31.1-5.7-60.1,7.4-87.1
	c13.1-27,33.2-47.1,60.2-60.4c27-13.2,55.7-16.5,86-9.8C186,79,154,77.6,122.7,89.4z"/>
<path style="fill:#FF5A00;" d="M280.4,205.4c-7.6-3-14.3-5.6-20.1-7.6c-4.8-1.8-9.5-3.6-14.2-5.5c-4.7-1.9-9.3-3.9-13.8-5.9
	c15.4-1.3,26.6-3.9,33.6-8c7-4,11.6-7.8,13.8-11.4c0.8-1.3,1.1-2.9,0-3.8c-9.9-7.8-22-13.5-36.4-16.9c-14.4-3.4-28.1-3.9-41-1.3
	c-3.3,0.8-6.4,0.2-9.5-1.7c-3-1.9-6.4-4.6-10.2-8.2c-1.5-1.3-2.8-2.4-4-3.4c-1.1-1-2.1-1.4-2.8-1.1c-1.5,0.8-1.8,8.3-0.8,22.8
	c-12.4,5.6-22.5,10.5-30.3,14.8c-5.1,2.5-11.4,6.3-19,11.4c-0.8,0.5-1.5,0.9-2.1,1.3c-0.6,0.4-1.3,0.8-2.1,1.3
	c-2,1.5-4.2,1.8-6.4,0.8c-1.3-0.8-3-2.4-5.3-4.9c-2.3-2.5-4.6-5.2-6.8-8c-2.5-3.3-5-6.2-7.4-8.7c-2.4-2.5-4-3.5-4.7-3
	c-0.8,0.5-1,1.8-0.8,4c0.2,2.2,0.8,4.6,1.5,7.4c2.8,8.9,4.2,16.4,4.2,22.8c0.2,4.6-0.5,11.3-2.3,20.1c-0.8,3.5-1.2,6.3-1.3,8.2
	c-0.1,1.9,0.3,3.1,1.3,3.6c1.5,0.8,3.4-0.2,5.7-2.8c2.3-2.7,5.7-7.1,10.2-13.5c2.8-4.8,4.9-7.7,6.4-8.7c1-0.5,2.3-0.5,3.8,0
	c9.1,3.3,20.2,7.2,33.2,11.8c13,4.6,22.8,7.8,29.4,9.9c1.8,0.5,2.5,1.3,2.3,2.3c-0.3,1-1.8,3.3-3.2,5.4c-3.9,5.5-0.8,8.5,2,8.5
	c3.2,0,7.6-2.5,11.8-5c3.3-2,5.5-4.3,8-7.4h5.3c18-0.5,32.4-1.7,43.2-3.6c10.9-1.9,20.5-6.3,28.8-13.1c0.6-0.5,0.9-1.2,0.9-1.6
	C281.4,206.1,281.1,205.7,280.4,205.4z M230,166.8c0-2,0.7-3.7,2.1-4.9c1.4-1.3,3-1.9,4.7-1.9c2,0,3.7,0.6,4.9,1.9
	c1.3,1.3,1.9,2.9,1.9,4.9c0,1.8-0.6,3.4-1.9,4.7c-1.3,1.4-2.9,2.1-4.9,2.1c-1.8,0-3.4-0.7-4.7-2.1C230.7,170.1,230,168.5,230,166.8z
	"/>
<g id="XMLID_00000010274443864605372390000004617574986259873720_" style="opacity:0.2;">
	<path id="XMLID_00000057836603660597776390000005176692247475208869_" style="opacity:0;fill:#FFFFFF;" d="M177.9,135.4
		c0,0.5,0.7,15.5,5.1,15.5c0.6,0,2.5-0.8,4.4-1.6c4.1-1.7,6-1.7,6-2.2c0-0.6-5.5-3.3-9.2-6.7c-1.8-1.7-5.3-5.2-5.5-5.5
		C178.5,134.6,177.9,134.6,177.9,135.4z"/>
	<path style="opacity:3.984064e-03;fill:#FFFFFF;" d="M177.9,135.4c0,0.5,0.7,15.4,5.1,15.5c0.6,0,2.4-0.8,4.4-1.6
		c4.1-1.7,6-1.7,6-2.2c0-0.6-5.5-3.3-9.2-6.7c-1.8-1.7-5.3-5.2-5.5-5.5C178.5,134.6,177.9,134.6,177.9,135.4z"/>
	<path style="opacity:7.968128e-03;fill:#FFFFFF;" d="M177.9,135.4c0,0.5,0.7,15.4,5.1,15.4c0.6,0,2.4-0.8,4.4-1.6
		c4.1-1.7,5.9-1.7,5.9-2.2c0-0.6-5.5-3.3-9.1-6.7c-1.8-1.7-5.2-5.2-5.5-5.5C178.5,134.6,177.9,134.6,177.9,135.4z"/>
	<path style="opacity:1.195219e-02;fill:#FFFFFF;" d="M177.9,135.4c0,0.5,0.7,15.4,5.1,15.4c0.6,0,2.4-0.8,4.4-1.6
		c4.1-1.7,5.9-1.7,5.9-2.2c0-0.6-5.5-3.3-9.1-6.7c-1.8-1.7-5.2-5.2-5.5-5.4C178.5,134.6,177.9,134.6,177.9,135.4z"/>
	<path style="opacity:1.593626e-02;fill:#FFFFFF;" d="M177.9,135.4c0,0.5,0.7,15.3,5.1,15.4c0.6,0,2.4-0.8,4.4-1.6
		c4.1-1.7,5.9-1.7,5.9-2.2c0-0.6-5.5-3.3-9.1-6.7c-1.8-1.7-5.2-5.2-5.5-5.4C178.5,134.6,177.9,134.6,177.9,135.4z"/>
	<path style="opacity:1.992032e-02;fill:#FFFFFF;" d="M177.9,135.4c0,0.5,0.7,15.3,5.1,15.3c0.6,0,2.4-0.8,4.4-1.6
		c4.1-1.7,5.9-1.7,5.9-2.2c0-0.6-5.4-3.3-9.1-6.7c-1.8-1.7-5.2-5.2-5.4-5.4C178.5,134.6,177.9,134.6,177.9,135.4z"/>
	<path style="opacity:2.390438e-02;fill:#FFFFFF;" d="M177.9,135.4c0,0.5,0.7,15.3,5,15.3c0.6,0,2.4-0.8,4.4-1.6
		c4.1-1.7,5.9-1.7,5.9-2.2c0-0.6-5.4-3.3-9-6.6c-1.8-1.7-5.2-5.2-5.4-5.4C178.5,134.6,177.9,134.6,177.9,135.4z"/>
	<path style="opacity:2.788845e-02;fill:#FFFFFF;" d="M177.9,135.4c0,0.5,0.7,15.2,5,15.3c0.6,0,2.4-0.8,4.4-1.6
		c4.1-1.7,5.8-1.7,5.8-2.2c0-0.6-5.4-3.3-9-6.6c-1.8-1.7-5.2-5.1-5.4-5.4C178.5,134.6,177.9,134.6,177.9,135.4z"/>
	<path style="opacity:3.187251e-02;fill:#FFFFFF;" d="M177.9,135.4c0,0.5,0.7,15.2,5,15.2c0.6,0,2.4-0.8,4.3-1.6
		c4-1.7,5.8-1.7,5.8-2.1c0-0.6-5.4-3.3-9-6.6c-1.8-1.7-5.2-5.1-5.4-5.4C178.5,134.6,177.9,134.6,177.9,135.4z"/>
	<path style="opacity:3.585657e-02;fill:#FFFFFF;" d="M177.9,135.4c0,0.5,0.7,15.2,5,15.2c0.6,0,2.4-0.8,4.3-1.6
		c4-1.7,5.8-1.7,5.8-2.1c0-0.6-5.4-3.3-9-6.6c-1.8-1.6-5.2-5.1-5.4-5.4C178.5,134.6,177.9,134.6,177.9,135.4z"/>
	<path style="opacity:3.984064e-02;fill:#FFFFFF;" d="M177.9,135.4c0,0.5,0.7,15.1,5,15.1c0.6,0,2.4-0.8,4.3-1.6
		c4-1.7,5.8-1.7,5.8-2.1c0-0.6-5.4-3.3-8.9-6.6c-1.8-1.6-5.1-5.1-5.4-5.4C178.5,134.6,177.9,134.6,177.9,135.4z"/>
	<path style="opacity:4.382470e-02;fill:#FFFFFF;" d="M177.9,135.4c0,0.5,0.7,15.1,5,15.1c0.6,0,2.4-0.8,4.3-1.6
		c4-1.7,5.8-1.7,5.8-2.1c0-0.6-5.4-3.3-8.9-6.6c-1.8-1.6-5.1-5.1-5.4-5.4C178.5,134.6,177.9,134.6,177.9,135.4z"/>
	<path style="opacity:4.780877e-02;fill:#FFFFFF;" d="M177.9,135.4c0,0.5,0.7,15.1,5,15.1c0.6,0,2.4-0.8,4.3-1.6
		c4-1.7,5.8-1.7,5.8-2.1c0-0.6-5.3-3.3-8.9-6.5c-1.8-1.6-5.1-5.1-5.4-5.3C178.5,134.6,177.9,134.6,177.9,135.4z"/>
	<path style="opacity:5.179283e-02;fill:#FFFFFF;" d="M177.9,135.4c0,0.5,0.7,15,5,15c0.6,0,2.4-0.8,4.3-1.6c4-1.7,5.7-1.7,5.7-2.1
		c0-0.6-5.3-3.3-8.8-6.5c-1.8-1.6-5.1-5.1-5.4-5.3C178.5,134.7,177.9,134.6,177.9,135.4z"/>
	<path style="opacity:5.577689e-02;fill:#FFFFFF;" d="M177.9,135.4c0,0.5,0.7,15,5,15c0.6,0,2.4-0.8,4.3-1.6c4-1.7,5.7-1.7,5.7-2.1
		c0-0.6-5.3-3.3-8.8-6.5c-1.8-1.6-5.1-5.1-5.3-5.3C178.5,134.7,177.9,134.6,177.9,135.4z"/>
	<path style="opacity:5.976096e-02;fill:#FFFFFF;" d="M177.9,135.4c0,0.5,0.7,15,5,15c0.6,0,2.3-0.7,4.3-1.6
		c3.9-1.7,5.7-1.7,5.7-2.1c0-0.6-5.3-3.3-8.8-6.5c-1.8-1.6-5.1-5-5.3-5.3C178.5,134.7,177.9,134.6,177.9,135.4z"/>
	<path style="opacity:6.374502e-02;fill:#FFFFFF;" d="M177.9,135.4c0,0.5,0.7,14.9,4.9,14.9c0.6,0,2.3-0.7,4.3-1.6
		c3.9-1.7,5.7-1.7,5.7-2.1c0-0.6-5.3-3.2-8.8-6.5c-1.7-1.6-5.1-5-5.3-5.3C178.5,134.7,177.9,134.6,177.9,135.4z"/>
	<path style="opacity:6.772909e-02;fill:#FFFFFF;" d="M177.9,135.4c0,0.5,0.7,14.9,4.9,14.9c0.6,0,2.3-0.7,4.2-1.6
		c3.9-1.6,5.7-1.7,5.7-2.1c0-0.6-5.3-3.2-8.7-6.5c-1.7-1.6-5.1-5-5.3-5.3C178.5,134.7,177.9,134.6,177.9,135.4z"/>
	<path style="opacity:7.171315e-02;fill:#FFFFFF;" d="M177.9,135.4c0,0.5,0.7,14.9,4.9,14.9c0.6,0,2.3-0.7,4.2-1.5
		c3.9-1.6,5.7-1.6,5.7-2.1c0-0.6-5.3-3.2-8.7-6.4c-1.7-1.6-5.1-5-5.3-5.3C178.5,134.7,177.9,134.6,177.9,135.4z"/>
	<path style="opacity:7.569721e-02;fill:#FFFFFF;" d="M177.9,135.4c0,0.5,0.7,14.8,4.9,14.8c0.6,0,2.3-0.7,4.2-1.5
		c3.9-1.6,5.6-1.6,5.6-2.1c0-0.6-5.2-3.2-8.7-6.4c-1.7-1.6-5-5-5.3-5.3C178.5,134.7,177.9,134.6,177.9,135.4z"/>
	<path style="opacity:7.968128e-02;fill:#FFFFFF;" d="M177.9,135.4c0,0.5,0.7,14.8,4.9,14.8c0.6,0,2.3-0.7,4.2-1.5
		c3.9-1.6,5.6-1.6,5.6-2.1c0-0.6-5.2-3.2-8.7-6.4c-1.7-1.6-5-5-5.3-5.3C178.5,134.7,177.9,134.6,177.9,135.4z"/>
	<path style="opacity:8.366534e-02;fill:#FFFFFF;" d="M178,135.4c0,0.5,0.7,14.8,4.9,14.8c0.6,0,2.3-0.7,4.2-1.5
		c3.9-1.6,5.6-1.6,5.6-2.1c0-0.6-5.2-3.2-8.6-6.4c-1.7-1.6-5-5-5.3-5.2C178.5,134.7,178,134.6,178,135.4z"/>
	<path style="opacity:8.764941e-02;fill:#FFFFFF;" d="M178,135.4c0,0.5,0.7,14.7,4.9,14.7c0.6,0,2.3-0.7,4.2-1.5
		c3.8-1.6,5.6-1.6,5.6-2.1c0-0.6-5.2-3.2-8.6-6.4c-1.7-1.6-5-5-5.2-5.2C178.5,134.7,178,134.6,178,135.4z"/>
	<path style="opacity:9.163347e-02;fill:#FFFFFF;" d="M178,135.4c0,0.5,0.7,14.7,4.9,14.7c0.6,0,2.3-0.7,4.2-1.5
		c3.8-1.6,5.6-1.6,5.6-2.1c0-0.6-5.2-3.2-8.6-6.4c-1.7-1.6-5-5-5.2-5.2C178.5,134.7,178,134.6,178,135.4z"/>
	<path style="opacity:9.561753e-02;fill:#FFFFFF;" d="M178,135.4c0,0.5,0.7,14.7,4.9,14.7c0.6,0,2.3-0.7,4.2-1.5
		c3.8-1.6,5.5-1.6,5.5-2.1c0-0.6-5.2-3.2-8.6-6.3c-1.7-1.6-5-4.9-5.2-5.2C178.5,134.7,178,134.7,178,135.4z"/>
	<path style="opacity:9.960160e-02;fill:#FFFFFF;" d="M178,135.4c0,0.5,0.7,14.6,4.9,14.6c0.6,0,2.3-0.7,4.1-1.5
		c3.8-1.6,5.5-1.6,5.5-2.1c0-0.6-5.2-3.2-8.5-6.3c-1.7-1.6-5-4.9-5.2-5.2C178.5,134.7,178,134.7,178,135.4z"/>
	<path style="opacity:0.1036;fill:#FFFFFF;" d="M178,135.4c0,0.5,0.7,14.6,4.8,14.6c0.6,0,2.3-0.7,4.1-1.5c3.8-1.6,5.5-1.6,5.5-2.1
		c0-0.6-5.1-3.2-8.5-6.3c-1.7-1.6-5-4.9-5.2-5.2C178.5,134.7,178,134.7,178,135.4z"/>
	<path style="opacity:0.1076;fill:#FFFFFF;" d="M178,135.4c0,0.5,0.7,14.6,4.8,14.6c0.6,0,2.3-0.7,4.1-1.5c3.8-1.6,5.5-1.6,5.5-2.1
		c0-0.6-5.1-3.2-8.5-6.3c-1.7-1.6-4.9-4.9-5.2-5.2C178.5,134.7,178,134.7,178,135.4z"/>
	<path style="opacity:0.1116;fill:#FFFFFF;" d="M178,135.4c0,0.5,0.7,14.5,4.8,14.5c0.6,0,2.3-0.7,4.1-1.5c3.8-1.6,5.5-1.6,5.5-2
		c0-0.6-5.1-3.2-8.5-6.3c-1.7-1.6-4.9-4.9-5.2-5.2C178.5,134.7,178,134.7,178,135.4z"/>
	<path style="opacity:0.1155;fill:#FFFFFF;" d="M178,135.4c0,0.5,0.7,14.5,4.8,14.5c0.6,0,2.3-0.7,4.1-1.5c3.8-1.6,5.5-1.6,5.5-2
		c0-0.6-5.1-3.2-8.4-6.3c-1.7-1.6-4.9-4.9-5.2-5.2C178.5,134.7,178,134.7,178,135.4z"/>
	<path style="opacity:0.1195;fill:#FFFFFF;" d="M178,135.4c0,0.5,0.7,14.5,4.8,14.5c0.6,0,2.2-0.7,4.1-1.5c3.7-1.6,5.4-1.6,5.4-2
		c0-0.6-5.1-3.2-8.4-6.2c-1.7-1.6-4.9-4.9-5.2-5.1C178.5,134.7,178,134.7,178,135.4z"/>
	<path style="opacity:0.1235;fill:#FFFFFF;" d="M178,135.4c0,0.5,0.7,14.4,4.8,14.4c0.6,0,2.2-0.7,4.1-1.5c3.7-1.6,5.4-1.6,5.4-2
		c0-0.6-5.1-3.2-8.4-6.2c-1.7-1.6-4.9-4.9-5.1-5.1C178.5,134.7,178,134.7,178,135.4z"/>
	<path style="opacity:0.1275;fill:#FFFFFF;" d="M178,135.4c0,0.5,0.7,14.4,4.8,14.4c0.6,0,2.2-0.7,4.1-1.5c3.7-1.6,5.4-1.6,5.4-2
		c0-0.6-5.1-3.2-8.3-6.2c-1.7-1.6-4.9-4.8-5.1-5.1C178.5,134.7,178,134.7,178,135.4z"/>
	<path style="opacity:0.1315;fill:#FFFFFF;" d="M178,135.4c0,0.5,0.7,14.4,4.8,14.4c0.6,0,2.2-0.7,4-1.5c3.7-1.6,5.4-1.6,5.4-2
		c0-0.6-5-3.2-8.3-6.2c-1.7-1.6-4.9-4.8-5.1-5.1C178.5,134.7,178,134.7,178,135.4z"/>
	<path style="opacity:0.1355;fill:#FFFFFF;" d="M178,135.4c0,0.5,0.7,14.3,4.8,14.3c0.6,0,2.2-0.7,4-1.5c3.7-1.6,5.4-1.6,5.4-2
		c0-0.6-5-3.1-8.3-6.2c-1.7-1.6-4.9-4.8-5.1-5.1C178.5,134.7,178,134.7,178,135.4z"/>
	<path style="opacity:0.1394;fill:#FFFFFF;" d="M178,135.4c0,0.5,0.7,14.3,4.8,14.3c0.6,0,2.2-0.7,4-1.5c3.7-1.6,5.4-1.6,5.4-2
		c0-0.6-5-3.1-8.3-6.2c-1.7-1.5-4.8-4.8-5.1-5.1C178.5,134.7,178,134.7,178,135.4z"/>
	<path style="opacity:0.1434;fill:#FFFFFF;" d="M178,135.4c0,0.5,0.7,14.3,4.7,14.3c0.6,0,2.2-0.7,4-1.5c3.7-1.6,5.3-1.6,5.3-2
		c0-0.6-5-3.1-8.2-6.1c-1.7-1.5-4.8-4.8-5.1-5.1C178.6,134.7,178,134.7,178,135.4z"/>
	<path style="opacity:0.1474;fill:#FFFFFF;" d="M178,135.4c0,0.5,0.7,14.2,4.7,14.2c0.6,0,2.2-0.7,4-1.5c3.6-1.6,5.3-1.6,5.3-2
		c0-0.6-5-3.1-8.2-6.1c-1.7-1.5-4.8-4.8-5.1-5.1C178.6,134.7,178,134.7,178,135.4z"/>
	<path style="opacity:0.1514;fill:#FFFFFF;" d="M178,135.4c0,0.5,0.7,14.2,4.7,14.2c0.6,0,2.2-0.7,4-1.5c3.6-1.5,5.3-1.6,5.3-2
		c0-0.6-5-3.1-8.2-6.1c-1.7-1.5-4.8-4.8-5.1-5C178.6,134.8,178,134.7,178,135.4z"/>
	<path style="opacity:0.1554;fill:#FFFFFF;" d="M178,135.4c0,0.5,0.7,14.2,4.7,14.2c0.6,0,2.2-0.7,4-1.5c3.6-1.5,5.3-1.6,5.3-2
		c0-0.6-5-3.1-8.2-6.1c-1.7-1.5-4.8-4.8-5.1-5C178.6,134.8,178,134.7,178,135.4z"/>
	<path style="opacity:0.1594;fill:#FFFFFF;" d="M178,135.4c0,0.5,0.7,14.1,4.7,14.1c0.6,0,2.2-0.7,4-1.5c3.6-1.5,5.3-1.5,5.3-2
		c0-0.6-4.9-3.1-8.1-6.1c-1.7-1.5-4.8-4.7-5-5C178.6,134.8,178,134.7,178,135.4z"/>
	<path style="opacity:0.1633;fill:#FFFFFF;" d="M178,135.4c0,0.5,0.7,14.1,4.7,14.1c0.6,0,2.2-0.7,3.9-1.5c3.6-1.5,5.2-1.5,5.2-2
		c0-0.6-4.9-3.1-8.1-6.1c-1.6-1.5-4.8-4.7-5-5C178.6,134.8,178,134.7,178,135.4z"/>
	<path style="opacity:0.1673;fill:#FFFFFF;" d="M178,135.4c0,0.5,0.7,14.1,4.7,14.1c0.6,0,2.2-0.7,3.9-1.5c3.6-1.5,5.2-1.5,5.2-2
		c0-0.6-4.9-3.1-8.1-6c-1.6-1.5-4.8-4.7-5-5C178.6,134.8,178,134.7,178,135.4z"/>
	<path style="opacity:0.1713;fill:#FFFFFF;" d="M178,135.4c0,0.5,0.7,14,4.7,14c0.6,0,2.2-0.7,3.9-1.5c3.6-1.5,5.2-1.5,5.2-2
		c0-0.6-4.9-3.1-8.1-6c-1.6-1.5-4.8-4.7-5-5C178.6,134.8,178,134.7,178,135.4z"/>
	<path style="opacity:0.1753;fill:#FFFFFF;" d="M178,135.5c0,0.5,0.7,14,4.7,14c0.6,0,2.1-0.7,3.9-1.5c3.5-1.5,5.2-1.5,5.2-2
		c0-0.6-4.9-3.1-8-6c-1.6-1.5-4.7-4.7-5-5C178.6,134.8,178,134.7,178,135.5z"/>
	<path style="opacity:0.1793;fill:#FFFFFF;" d="M178,135.5c0,0.5,0.7,14,4.7,13.9c0.6,0,2.1-0.7,3.9-1.5c3.5-1.5,5.2-1.5,5.2-2
		c0-0.6-4.9-3.1-8-6c-1.6-1.5-4.7-4.7-5-5C178.6,134.8,178,134.7,178,135.5z"/>
	<path style="opacity:0.1833;fill:#FFFFFF;" d="M178,135.5c0,0.5,0.7,13.9,4.6,13.9c0.6,0,2.1-0.7,3.9-1.5c3.5-1.5,5.2-1.5,5.2-2
		c0-0.6-4.9-3.1-8-6c-1.6-1.5-4.7-4.7-5-5C178.6,134.8,178,134.7,178,135.5z"/>
	<path style="opacity:0.1873;fill:#FFFFFF;" d="M178,135.5c0,0.5,0.7,13.9,4.6,13.9c0.6,0,2.1-0.7,3.9-1.5c3.5-1.5,5.1-1.5,5.1-2
		c0-0.6-4.8-3.1-8-6c-1.6-1.5-4.7-4.7-5-4.9C178.6,134.8,178,134.7,178,135.5z"/>
	<path style="opacity:0.1912;fill:#FFFFFF;" d="M178,135.5c0,0.5,0.7,13.9,4.6,13.8c0.6,0,2.1-0.7,3.9-1.5c3.5-1.5,5.1-1.5,5.1-1.9
		c0-0.6-4.8-3.1-7.9-5.9c-1.6-1.5-4.7-4.7-5-4.9C178.6,134.8,178,134.8,178,135.5z"/>
	<path style="opacity:0.1952;fill:#FFFFFF;" d="M178,135.5c0,0.5,0.7,13.8,4.6,13.8c0.6,0,2.1-0.7,3.9-1.5c3.5-1.5,5.1-1.5,5.1-1.9
		c0-0.6-4.8-3.1-7.9-5.9c-1.6-1.5-4.7-4.6-4.9-4.9C178.6,134.8,178,134.8,178,135.5z"/>
	<path style="opacity:0.1992;fill:#FFFFFF;" d="M178,135.5c0,0.5,0.7,13.8,4.6,13.8c0.6,0,2.1-0.7,3.8-1.5c3.5-1.5,5.1-1.5,5.1-1.9
		c0-0.6-4.8-3.1-7.9-5.9c-1.6-1.5-4.7-4.6-4.9-4.9C178.6,134.8,178,134.8,178,135.5z"/>
	<path style="opacity:0.2032;fill:#FFFFFF;" d="M178,135.5c0,0.5,0.7,13.8,4.6,13.7c0.6,0,2.1-0.7,3.8-1.5c3.5-1.5,5.1-1.5,5.1-1.9
		c0-0.6-4.8-3.1-7.8-5.9c-1.6-1.5-4.7-4.6-4.9-4.9C178.6,134.8,178,134.8,178,135.5z"/>
	<path style="opacity:0.2072;fill:#FFFFFF;" d="M178,135.5c0,0.5,0.7,13.7,4.6,13.7c0.6,0,2.1-0.7,3.8-1.5c3.4-1.5,5.1-1.5,5.1-1.9
		c0-0.6-4.8-3-7.8-5.9c-1.6-1.5-4.6-4.6-4.9-4.9C178.6,134.8,178,134.8,178,135.5z"/>
	<path style="opacity:0.2112;fill:#FFFFFF;" d="M178,135.5c0,0.5,0.7,13.7,4.6,13.7c0.6,0,2.1-0.7,3.8-1.5c3.4-1.5,5-1.5,5-1.9
		c0-0.6-4.7-3-7.8-5.9c-1.6-1.5-4.6-4.6-4.9-4.9C178.6,134.8,178,134.8,178,135.5z"/>
	<path style="opacity:0.2151;fill:#FFFFFF;" d="M178.1,135.5c0,0.5,0.7,13.7,4.6,13.6c0.6,0,2.1-0.7,3.8-1.5c3.4-1.5,5-1.5,5-1.9
		c0-0.6-4.7-3-7.8-5.9c-1.6-1.5-4.6-4.6-4.9-4.9C178.6,134.8,178.1,134.8,178.1,135.5z"/>
	<path style="opacity:0.2191;fill:#FFFFFF;" d="M178.1,135.5c0,0.4,0.7,13.6,4.6,13.6c0.6,0,2.1-0.7,3.8-1.4c3.4-1.5,5-1.5,5-1.9
		c0-0.6-4.7-3-7.7-5.8c-1.6-1.5-4.6-4.6-4.9-4.9C178.6,134.8,178.1,134.8,178.1,135.5z"/>
	<path style="opacity:0.2231;fill:#FFFFFF;" d="M178.1,135.5c0,0.4,0.7,13.6,4.6,13.6c0.6,0,2.1-0.7,3.8-1.4c3.4-1.5,5-1.5,5-1.9
		c0-0.6-4.7-3-7.7-5.8c-1.6-1.5-4.6-4.6-4.9-4.8C178.6,134.8,178.1,134.8,178.1,135.5z"/>
	<path style="opacity:0.2271;fill:#FFFFFF;" d="M178.1,135.5c0,0.4,0.7,13.6,4.5,13.5c0.6,0,2.1-0.7,3.8-1.4c3.4-1.5,5-1.5,5-1.9
		c0-0.6-4.7-3-7.7-5.8c-1.6-1.5-4.6-4.5-4.9-4.8C178.6,134.8,178.1,134.8,178.1,135.5z"/>
	<path style="opacity:0.2311;fill:#FFFFFF;" d="M178.1,135.5c0,0.4,0.7,13.5,4.5,13.5c0.6,0,2-0.7,3.7-1.4c3.4-1.5,4.9-1.5,4.9-1.9
		c0-0.6-4.7-3-7.7-5.8c-1.6-1.5-4.6-4.5-4.8-4.8C178.6,134.8,178.1,134.8,178.1,135.5z"/>
	<path style="opacity:0.2351;fill:#FFFFFF;" d="M178.1,135.5c0,0.4,0.7,13.5,4.5,13.5c0.6,0,2-0.7,3.7-1.4c3.3-1.4,4.9-1.5,4.9-1.9
		c0-0.6-4.7-3-7.6-5.8c-1.6-1.5-4.6-4.5-4.8-4.8C178.6,134.8,178.1,134.8,178.1,135.5z"/>
	<path style="opacity:0.239;fill:#FFFFFF;" d="M178.1,135.5c0,0.4,0.7,13.5,4.5,13.4c0.6,0,2-0.7,3.7-1.4c3.3-1.4,4.9-1.5,4.9-1.9
		c0-0.6-4.6-3-7.6-5.8c-1.6-1.5-4.5-4.5-4.8-4.8C178.6,134.8,178.1,134.8,178.1,135.5z"/>
	<path style="opacity:0.243;fill:#FFFFFF;" d="M178.1,135.5c0,0.4,0.7,13.4,4.5,13.4c0.6,0,2-0.7,3.7-1.4c3.3-1.4,4.9-1.5,4.9-1.9
		c0-0.6-4.6-3-7.6-5.7c-1.6-1.4-4.5-4.5-4.8-4.8C178.6,134.8,178.1,134.8,178.1,135.5z"/>
	<path style="opacity:0.247;fill:#FFFFFF;" d="M178.1,135.5c0,0.4,0.7,13.4,4.5,13.4c0.6,0,2-0.7,3.7-1.4c3.3-1.4,4.9-1.4,4.9-1.9
		c0-0.6-4.6-3-7.6-5.7c-1.6-1.4-4.5-4.5-4.8-4.8C178.6,134.8,178.1,134.8,178.1,135.5z"/>
	<path style="opacity:0.251;fill:#FFFFFF;" d="M178.1,135.5c0,0.4,0.7,13.4,4.5,13.3c0.6,0,2-0.7,3.7-1.4c3.3-1.4,4.9-1.4,4.9-1.9
		c0-0.6-4.6-3-7.5-5.7c-1.6-1.4-4.5-4.5-4.8-4.8C178.6,134.8,178.1,134.8,178.1,135.5z"/>
	<path style="opacity:0.255;fill:#FFFFFF;" d="M178.1,135.5c0,0.4,0.7,13.3,4.5,13.3c0.6,0,2-0.7,3.7-1.4c3.3-1.4,4.8-1.4,4.8-1.9
		c0-0.6-4.6-3-7.5-5.7c-1.6-1.4-4.5-4.5-4.8-4.8C178.6,134.9,178.1,134.8,178.1,135.5z"/>
	<path style="opacity:0.259;fill:#FFFFFF;" d="M178.1,135.5c0,0.4,0.7,13.3,4.5,13.3c0.6,0,2-0.7,3.7-1.4c3.3-1.4,4.8-1.4,4.8-1.9
		c0-0.6-4.6-3-7.5-5.7c-1.5-1.4-4.5-4.4-4.8-4.7C178.6,134.9,178.1,134.8,178.1,135.5z"/>
	<path style="opacity:0.2629;fill:#FFFFFF;" d="M178.1,135.5c0,0.4,0.7,13.2,4.5,13.2c0.6,0,2-0.7,3.6-1.4c3.2-1.4,4.8-1.4,4.8-1.9
		c0-0.6-4.6-3-7.5-5.7c-1.5-1.4-4.5-4.4-4.8-4.7C178.6,134.9,178.1,134.8,178.1,135.5z"/>
	<path style="opacity:0.2669;fill:#FFFFFF;" d="M178.1,135.5c0,0.4,0.7,13.2,4.4,13.2c0.6,0,2-0.7,3.6-1.4c3.2-1.4,4.8-1.4,4.8-1.9
		c0-0.6-4.5-3-7.4-5.6c-1.5-1.4-4.5-4.4-4.7-4.7C178.6,134.9,178.1,134.8,178.1,135.5z"/>
	<path style="opacity:0.2709;fill:#FFFFFF;" d="M178.1,135.5c0,0.4,0.7,13.2,4.4,13.2c0.6,0,2-0.7,3.6-1.4c3.2-1.4,4.8-1.4,4.8-1.8
		c0-0.6-4.5-3-7.4-5.6c-1.5-1.4-4.5-4.4-4.7-4.7C178.6,134.9,178.1,134.8,178.1,135.5z"/>
	<path style="opacity:0.2749;fill:#FFFFFF;" d="M178.1,135.5c0,0.4,0.7,13.1,4.4,13.1c0.6,0,2-0.7,3.6-1.4c3.2-1.4,4.8-1.4,4.8-1.8
		c0-0.6-4.5-3-7.4-5.6c-1.5-1.4-4.4-4.4-4.7-4.7C178.6,134.9,178.1,134.8,178.1,135.5z"/>
	<path style="opacity:0.2789;fill:#FFFFFF;" d="M178.1,135.5c0,0.4,0.7,13.1,4.4,13.1c0.6,0,2-0.7,3.6-1.4c3.2-1.4,4.7-1.4,4.7-1.8
		c0-0.6-4.5-2.9-7.3-5.6c-1.5-1.4-4.4-4.4-4.7-4.7C178.6,134.9,178.1,134.8,178.1,135.5z"/>
	<path style="opacity:0.2829;fill:#FFFFFF;" d="M178.1,135.5c0,0.4,0.7,13.1,4.4,13.1c0.6,0,2-0.7,3.6-1.4c3.2-1.4,4.7-1.4,4.7-1.8
		c0-0.6-4.5-2.9-7.3-5.6c-1.5-1.4-4.4-4.4-4.7-4.7C178.6,134.9,178.1,134.8,178.1,135.5z"/>
	<path style="opacity:0.2869;fill:#FFFFFF;" d="M178.1,135.5c0,0.4,0.7,13,4.4,13c0.6,0,2-0.7,3.6-1.4c3.2-1.4,4.7-1.4,4.7-1.8
		c0-0.6-4.5-2.9-7.3-5.6c-1.5-1.4-4.4-4.4-4.7-4.7C178.6,134.9,178.1,134.8,178.1,135.5z"/>
	<path style="opacity:0.2908;fill:#FFFFFF;" d="M178.1,135.5c0,0.4,0.7,13,4.4,13c0.6,0,1.9-0.7,3.6-1.4c3.2-1.4,4.7-1.4,4.7-1.8
		c0-0.6-4.5-2.9-7.3-5.5c-1.5-1.4-4.4-4.4-4.7-4.7C178.6,134.9,178.1,134.9,178.1,135.5z"/>
	<path style="opacity:0.2948;fill:#FFFFFF;" d="M178.1,135.5c0,0.4,0.7,13,4.4,13c0.6,0,1.9-0.7,3.5-1.4c3.1-1.4,4.7-1.4,4.7-1.8
		c0-0.6-4.4-2.9-7.2-5.5c-1.5-1.4-4.4-4.3-4.7-4.6C178.6,134.9,178.1,134.9,178.1,135.5z"/>
	<path style="opacity:0.2988;fill:#FFFFFF;" d="M178.1,135.5c0,0.4,0.7,12.9,4.4,12.9c0.6,0,1.9-0.7,3.5-1.4
		c3.1-1.4,4.6-1.4,4.6-1.8c0-0.6-4.4-2.9-7.2-5.5c-1.5-1.4-4.4-4.3-4.6-4.6C178.6,134.9,178.1,134.9,178.1,135.5z"/>
	<path style="opacity:0.3028;fill:#FFFFFF;" d="M178.1,135.5c0,0.4,0.7,12.9,4.4,12.9c0.6,0,1.9-0.7,3.5-1.4
		c3.1-1.4,4.6-1.4,4.6-1.8c0-0.6-4.4-2.9-7.2-5.5c-1.5-1.4-4.4-4.3-4.6-4.6C178.6,134.9,178.1,134.9,178.1,135.5z"/>
	<path style="opacity:0.3068;fill:#FFFFFF;" d="M178.1,135.5c0,0.4,0.7,12.9,4.3,12.9c0.6,0,1.9-0.7,3.5-1.4
		c3.1-1.4,4.6-1.4,4.6-1.8c0-0.6-4.4-2.9-7.2-5.5c-1.5-1.4-4.3-4.3-4.6-4.6C178.6,134.9,178.1,134.9,178.1,135.5z"/>
	<path style="opacity:0.3108;fill:#FFFFFF;" d="M178.1,135.5c0,0.4,0.7,12.8,4.3,12.8c0.6,0,1.9-0.7,3.5-1.4
		c3.1-1.4,4.6-1.4,4.6-1.8c0-0.6-4.4-2.9-7.1-5.5c-1.5-1.4-4.3-4.3-4.6-4.6C178.6,134.9,178.1,134.9,178.1,135.5z"/>
	<path style="opacity:0.3147;fill:#FFFFFF;" d="M178.1,135.5c0,0.4,0.7,12.8,4.3,12.8c0.6,0,1.9-0.7,3.5-1.4
		c3.1-1.3,4.6-1.4,4.6-1.8c0-0.6-4.4-2.9-7.1-5.4c-1.5-1.4-4.3-4.3-4.6-4.6C178.6,134.9,178.1,134.9,178.1,135.5z"/>
	<path style="opacity:0.3187;fill:#FFFFFF;" d="M178.1,135.5c0,0.4,0.7,12.8,4.3,12.8c0.5,0,1.9-0.7,3.5-1.4
		c3.1-1.3,4.6-1.4,4.6-1.8c0-0.6-4.4-2.9-7.1-5.4c-1.5-1.4-4.3-4.3-4.6-4.6C178.6,134.9,178.1,134.9,178.1,135.5z"/>
	<path style="opacity:0.3227;fill:#FFFFFF;" d="M178.1,135.5c0,0.4,0.7,12.7,4.3,12.7c0.5,0,1.9-0.7,3.5-1.4c3-1.3,4.5-1.4,4.5-1.8
		c0-0.6-4.3-2.9-7.1-5.4c-1.5-1.4-4.3-4.3-4.6-4.6C178.6,134.9,178.1,134.9,178.1,135.5z"/>
	<path style="opacity:0.3267;fill:#FFFFFF;" d="M178.1,135.5c0,0.4,0.7,12.7,4.3,12.7c0.5,0,1.9-0.7,3.5-1.4c3-1.3,4.5-1.4,4.5-1.8
		c0-0.6-4.3-2.9-7-5.4c-1.5-1.4-4.3-4.2-4.6-4.6C178.6,134.9,178.1,134.9,178.1,135.5z"/>
	<path style="opacity:0.3307;fill:#FFFFFF;" d="M178.1,135.5c0,0.4,0.7,12.7,4.3,12.6c0.5,0,1.9-0.7,3.4-1.4c3-1.3,4.5-1.4,4.5-1.8
		c0-0.6-4.3-2.9-7-5.4c-1.5-1.4-4.3-4.2-4.6-4.5C178.6,134.9,178.1,134.9,178.1,135.5z"/>
	<path style="opacity:0.3347;fill:#FFFFFF;" d="M178.1,135.5c0,0.4,0.7,12.6,4.3,12.6c0.5,0,1.9-0.7,3.4-1.4c3-1.3,4.5-1.3,4.5-1.8
		c0-0.6-4.3-2.9-7-5.4c-1.5-1.4-4.3-4.2-4.5-4.5C178.6,134.9,178.1,134.9,178.1,135.5z"/>
	<path style="opacity:0.3386;fill:#FFFFFF;" d="M178.1,135.5c0,0.4,0.7,12.6,4.3,12.6c0.5,0,1.9-0.7,3.4-1.4c3-1.3,4.5-1.3,4.5-1.8
		c0-0.6-4.3-2.9-7-5.3c-1.5-1.4-4.2-4.2-4.5-4.5C178.6,134.9,178.1,134.9,178.1,135.5z"/>
	<path style="opacity:0.3426;fill:#FFFFFF;" d="M178.1,135.5c0,0.4,0.7,12.6,4.3,12.5c0.5,0,1.9-0.7,3.4-1.4c3-1.3,4.5-1.3,4.5-1.8
		c0-0.6-4.3-2.9-6.9-5.3c-1.5-1.4-4.2-4.2-4.5-4.5C178.6,134.9,178.1,134.9,178.1,135.5z"/>
	<path style="opacity:0.3466;fill:#FFFFFF;" d="M178.2,135.5c0,0.4,0.7,12.5,4.2,12.5c0.5,0,1.8-0.7,3.4-1.4c3-1.3,4.4-1.3,4.4-1.8
		c0-0.5-4.3-2.9-6.9-5.3c-1.5-1.3-4.2-4.2-4.5-4.5C178.6,134.9,178.2,134.9,178.2,135.5z"/>
	<path style="opacity:0.3506;fill:#FFFFFF;" d="M178.2,135.5c0,0.4,0.7,12.5,4.2,12.5c0.5,0,1.8-0.7,3.4-1.4
		c2.9-1.3,4.4-1.3,4.4-1.7c0-0.5-4.2-2.8-6.9-5.3c-1.5-1.3-4.2-4.2-4.5-4.5C178.6,134.9,178.2,134.9,178.2,135.5z"/>
	<path style="opacity:0.3546;fill:#FFFFFF;" d="M178.2,135.5c0,0.4,0.7,12.5,4.2,12.4c0.5,0,1.8-0.7,3.4-1.4
		c2.9-1.3,4.4-1.3,4.4-1.7c0-0.5-4.2-2.8-6.9-5.3c-1.5-1.3-4.2-4.2-4.5-4.5C178.6,135,178.2,134.9,178.2,135.5z"/>
	<path style="opacity:0.3586;fill:#FFFFFF;" d="M178.2,135.6c0,0.4,0.7,12.4,4.2,12.4c0.5,0,1.8-0.7,3.4-1.4
		c2.9-1.3,4.4-1.3,4.4-1.7c0-0.5-4.2-2.8-6.8-5.3c-1.4-1.3-4.2-4.1-4.5-4.5C178.6,135,178.2,134.9,178.2,135.6z"/>
	<path style="opacity:0.3625;fill:#FFFFFF;" d="M178.2,135.6c0,0.4,0.8,12.4,4.2,12.4c0.5,0,1.8-0.7,3.3-1.4
		c2.9-1.3,4.4-1.3,4.4-1.7c0-0.5-4.2-2.8-6.8-5.2c-1.4-1.3-4.2-4.1-4.5-4.5C178.6,135,178.2,134.9,178.2,135.6z"/>
	<path style="opacity:0.3665;fill:#FFFFFF;" d="M178.2,135.6c0,0.4,0.8,12.4,4.2,12.3c0.5,0,1.8-0.7,3.3-1.3
		c2.9-1.3,4.3-1.3,4.3-1.7c0-0.5-4.2-2.8-6.8-5.2c-1.4-1.3-4.2-4.1-4.5-4.4C178.6,135,178.2,134.9,178.2,135.6z"/>
	<path style="opacity:0.3705;fill:#FFFFFF;" d="M178.2,135.6c0,0.4,0.8,12.3,4.2,12.3c0.5,0,1.8-0.7,3.3-1.3
		c2.9-1.3,4.3-1.3,4.3-1.7c0-0.5-4.2-2.8-6.7-5.2c-1.4-1.3-4.1-4.1-4.4-4.4C178.6,135,178.2,134.9,178.2,135.6z"/>
	<path style="opacity:0.3745;fill:#FFFFFF;" d="M178.2,135.6c0,0.4,0.8,12.3,4.2,12.3c0.5,0,1.8-0.7,3.3-1.3
		c2.9-1.3,4.3-1.3,4.3-1.7c0-0.5-4.2-2.8-6.7-5.2c-1.4-1.3-4.1-4.1-4.4-4.4C178.6,135,178.2,134.9,178.2,135.6z"/>
	<path style="opacity:0.3785;fill:#FFFFFF;" d="M178.2,135.6c0,0.4,0.8,12.3,4.2,12.2c0.5,0,1.8-0.7,3.3-1.3
		c2.9-1.3,4.3-1.3,4.3-1.7c0-0.5-4.1-2.8-6.7-5.2c-1.4-1.3-4.1-4.1-4.4-4.4C178.6,135,178.2,134.9,178.2,135.6z"/>
	<path style="opacity:0.3825;fill:#FFFFFF;" d="M178.2,135.6c0,0.4,0.8,12.2,4.2,12.2c0.5,0,1.8-0.7,3.3-1.3
		c2.8-1.3,4.3-1.3,4.3-1.7c0-0.5-4.1-2.8-6.7-5.2c-1.4-1.3-4.1-4.1-4.4-4.4C178.6,135,178.2,134.9,178.2,135.6z"/>
	<path style="opacity:0.3865;fill:#FFFFFF;" d="M178.2,135.6c0,0.4,0.8,12.2,4.1,12.2c0.5,0,1.8-0.7,3.3-1.3
		c2.8-1.3,4.3-1.3,4.3-1.7c0-0.5-4.1-2.8-6.6-5.1c-1.4-1.3-4.1-4.1-4.4-4.4C178.6,135,178.2,135,178.2,135.6z"/>
	<path style="opacity:0.3904;fill:#FFFFFF;" d="M178.2,135.6c0,0.4,0.8,12.2,4.1,12.1c0.5,0,1.8-0.7,3.3-1.3
		c2.8-1.3,4.2-1.3,4.2-1.7c0-0.5-4.1-2.8-6.6-5.1c-1.4-1.3-4.1-4-4.4-4.4C178.6,135,178.2,135,178.2,135.6z"/>
	<path style="opacity:0.3944;fill:#FFFFFF;" d="M178.2,135.6c0,0.4,0.8,12.1,4.1,12.1c0.5,0,1.8-0.7,3.2-1.3
		c2.8-1.2,4.2-1.3,4.2-1.7c0-0.5-4.1-2.8-6.6-5.1c-1.4-1.3-4.1-4-4.4-4.4C178.6,135,178.2,135,178.2,135.6z"/>
	<path style="opacity:0.3984;fill:#FFFFFF;" d="M178.2,135.6c0,0.4,0.8,12.1,4.1,12.1c0.5,0,1.8-0.7,3.2-1.3
		c2.8-1.2,4.2-1.3,4.2-1.7c0-0.5-4.1-2.8-6.6-5.1c-1.4-1.3-4.1-4-4.4-4.4C178.7,135,178.2,135,178.2,135.6z"/>
	<path style="opacity:0.4024;fill:#FFFFFF;" d="M178.2,135.6c0,0.4,0.8,12.1,4.1,12c0.5,0,1.7-0.7,3.2-1.3c2.8-1.2,4.2-1.3,4.2-1.7
		c0-0.5-4.1-2.8-6.5-5.1c-1.4-1.3-4.1-4-4.4-4.3C178.7,135,178.2,135,178.2,135.6z"/>
	<path style="opacity:0.4064;fill:#FFFFFF;" d="M178.2,135.6c0,0.4,0.8,12,4.1,12c0.5,0,1.7-0.7,3.2-1.3c2.8-1.2,4.2-1.3,4.2-1.7
		c0-0.5-4-2.8-6.5-5.1c-1.4-1.3-4-4-4.3-4.3C178.7,135,178.2,135,178.2,135.6z"/>
	<path style="opacity:0.4104;fill:#FFFFFF;" d="M178.2,135.6c0,0.4,0.8,12,4.1,12c0.5,0,1.7-0.7,3.2-1.3c2.7-1.2,4.2-1.3,4.2-1.7
		c0-0.5-4-2.8-6.5-5c-1.4-1.3-4-4-4.3-4.3C178.7,135,178.2,135,178.2,135.6z"/>
	<path style="opacity:0.4143;fill:#FFFFFF;" d="M178.2,135.6c0,0.4,0.8,12,4.1,11.9c0.5,0,1.7-0.7,3.2-1.3c2.7-1.2,4.1-1.3,4.1-1.7
		c0-0.5-4-2.8-6.5-5c-1.4-1.3-4-4-4.3-4.3C178.7,135,178.2,135,178.2,135.6z"/>
	<path style="opacity:0.4183;fill:#FFFFFF;" d="M178.2,135.6c0,0.4,0.8,11.9,4.1,11.9c0.5,0,1.7-0.7,3.2-1.3
		c2.7-1.2,4.1-1.2,4.1-1.7c0-0.5-4-2.8-6.4-5c-1.4-1.3-4-4-4.3-4.3C178.7,135,178.2,135,178.2,135.6z"/>
	<path style="opacity:0.4223;fill:#FFFFFF;" d="M178.2,135.6c0,0.4,0.8,11.9,4.1,11.9c0.5,0,1.7-0.7,3.2-1.3
		c2.7-1.2,4.1-1.2,4.1-1.7c0-0.5-4-2.7-6.4-5c-1.4-1.3-4-4-4.3-4.3C178.7,135,178.2,135,178.2,135.6z"/>
	<path style="opacity:0.4263;fill:#FFFFFF;" d="M178.2,135.6c0,0.4,0.8,11.9,4,11.8c0.5,0,1.7-0.7,3.1-1.3c2.7-1.2,4.1-1.2,4.1-1.7
		c0-0.5-4-2.7-6.4-5c-1.4-1.3-4-3.9-4.3-4.3C178.7,135,178.2,135,178.2,135.6z"/>
	<path style="opacity:0.4303;fill:#FFFFFF;" d="M178.2,135.6c0,0.4,0.8,11.8,4,11.8c0.5,0,1.7-0.7,3.1-1.3c2.7-1.2,4.1-1.2,4.1-1.6
		c0-0.5-3.9-2.7-6.4-5c-1.4-1.3-4-3.9-4.3-4.3C178.7,135,178.2,135,178.2,135.6z"/>
	<path style="opacity:0.4343;fill:#FFFFFF;" d="M178.2,135.6c0,0.4,0.8,11.8,4,11.8c0.5,0,1.7-0.7,3.1-1.3c2.7-1.2,4-1.2,4-1.6
		c0-0.5-3.9-2.7-6.3-4.9c-1.4-1.3-4-3.9-4.3-4.3C178.7,135,178.2,135,178.2,135.6z"/>
	<path style="opacity:0.4382;fill:#FFFFFF;" d="M178.2,135.6c0,0.4,0.8,11.8,4,11.7c0.5,0,1.7-0.7,3.1-1.3c2.6-1.2,4-1.2,4-1.6
		c0-0.5-3.9-2.7-6.3-4.9c-1.4-1.3-3.9-3.9-4.3-4.2C178.7,135,178.2,135,178.2,135.6z"/>
	<path style="opacity:0.4422;fill:#FFFFFF;" d="M178.2,135.6c0,0.4,0.8,11.7,4,11.7c0.5,0,1.7-0.7,3.1-1.3c2.6-1.2,4-1.2,4-1.6
		c0-0.5-3.9-2.7-6.3-4.9c-1.4-1.3-3.9-3.9-4.2-4.2C178.7,135,178.2,135,178.2,135.6z"/>
	<path style="opacity:0.4462;fill:#FFFFFF;" d="M178.2,135.6c0,0.4,0.8,11.7,4,11.7c0.5,0,1.7-0.7,3.1-1.3c2.6-1.2,4-1.2,4-1.6
		c0-0.5-3.9-2.7-6.2-4.9c-1.4-1.3-3.9-3.9-4.2-4.2C178.7,135,178.2,135,178.2,135.6z"/>
	<path style="opacity:0.4502;fill:#FFFFFF;" d="M178.2,135.6c0,0.4,0.8,11.7,4,11.6c0.5,0,1.7-0.7,3.1-1.3c2.6-1.2,4-1.2,4-1.6
		c0-0.5-3.9-2.7-6.2-4.9c-1.4-1.2-3.9-3.9-4.2-4.2C178.7,135,178.2,135,178.2,135.6z"/>
	<path style="opacity:0.4542;fill:#FFFFFF;" d="M178.2,135.6c0,0.4,0.8,11.6,4,11.6c0.5,0,1.7-0.7,3.1-1.3c2.6-1.2,4-1.2,4-1.6
		c0-0.5-3.9-2.7-6.2-4.9c-1.3-1.2-3.9-3.9-4.2-4.2C178.7,135.1,178.2,135,178.2,135.6z"/>
	<path style="opacity:0.4582;fill:#FFFFFF;" d="M178.2,135.6c0,0.4,0.8,11.6,4,11.6c0.5,0,1.7-0.6,3.1-1.3c2.6-1.2,3.9-1.2,3.9-1.6
		c0-0.5-3.8-2.7-6.2-4.8c-1.3-1.2-3.9-3.8-4.2-4.2C178.7,135.1,178.2,135,178.2,135.6z"/>
	<path style="opacity:0.4622;fill:#FFFFFF;" d="M178.2,135.6c0,0.4,0.8,11.6,4,11.5c0.5,0,1.6-0.6,3-1.3c2.6-1.2,3.9-1.2,3.9-1.6
		c0-0.5-3.8-2.7-6.1-4.8c-1.3-1.2-3.9-3.8-4.2-4.2C178.7,135.1,178.2,135,178.2,135.6z"/>
	<path style="opacity:0.4661;fill:#FFFFFF;" d="M178.2,135.6c0,0.4,0.8,11.5,3.9,11.5c0.5,0,1.6-0.6,3-1.3c2.6-1.2,3.9-1.2,3.9-1.6
		c0-0.5-3.8-2.7-6.1-4.8c-1.3-1.2-3.9-3.8-4.2-4.2C178.7,135.1,178.2,135,178.2,135.6z"/>
	<path style="opacity:0.4701;fill:#FFFFFF;" d="M178.2,135.6c0,0.4,0.8,11.5,3.9,11.5c0.5,0,1.6-0.6,3-1.3c2.5-1.2,3.9-1.2,3.9-1.6
		c0-0.5-3.8-2.7-6.1-4.8c-1.3-1.2-3.8-3.8-4.2-4.2C178.7,135.1,178.2,135,178.2,135.6z"/>
	<path style="opacity:0.4741;fill:#FFFFFF;" d="M178.2,135.6c0,0.4,0.8,11.5,3.9,11.4c0.5,0,1.6-0.6,3-1.3c2.5-1.2,3.9-1.2,3.9-1.6
		c0-0.5-3.8-2.7-6.1-4.8c-1.3-1.2-3.8-3.8-4.2-4.1C178.7,135.1,178.2,135,178.2,135.6z"/>
	<path style="opacity:0.4781;fill:#FFFFFF;" d="M178.3,135.6c0,0.4,0.8,11.4,3.9,11.4c0.5,0,1.6-0.6,3-1.3c2.5-1.1,3.9-1.2,3.9-1.6
		c0-0.5-3.8-2.7-6-4.8c-1.3-1.2-3.8-3.8-4.1-4.1C178.7,135.1,178.3,135,178.3,135.6z"/>
	<path style="opacity:0.4821;fill:#FFFFFF;" d="M178.3,135.6c0,0.4,0.8,11.4,3.9,11.3c0.5,0,1.6-0.6,3-1.3c2.5-1.1,3.8-1.2,3.8-1.6
		c0-0.5-3.8-2.7-6-4.7c-1.3-1.2-3.8-3.8-4.1-4.1C178.7,135.1,178.3,135,178.3,135.6z"/>
	<path style="opacity:0.4861;fill:#FFFFFF;" d="M178.3,135.6c0,0.4,0.8,11.4,3.9,11.3c0.5,0,1.6-0.6,3-1.3c2.5-1.1,3.8-1.2,3.8-1.6
		c0-0.5-3.7-2.7-6-4.7c-1.3-1.2-3.8-3.8-4.1-4.1C178.7,135.1,178.3,135.1,178.3,135.6z"/>
	<path style="opacity:0.49;fill:#FFFFFF;" d="M178.3,135.6c0,0.4,0.8,11.3,3.9,11.3c0.5,0,1.6-0.6,3-1.3c2.5-1.1,3.8-1.2,3.8-1.6
		c0-0.5-3.7-2.7-6-4.7c-1.3-1.2-3.8-3.7-4.1-4.1C178.7,135.1,178.3,135.1,178.3,135.6z"/>
	<path style="opacity:0.494;fill:#FFFFFF;" d="M178.3,135.6c0,0.4,0.8,11.3,3.9,11.2c0.5,0,1.6-0.6,2.9-1.3c2.5-1.1,3.8-1.2,3.8-1.6
		c0-0.5-3.7-2.6-5.9-4.7c-1.3-1.2-3.8-3.7-4.1-4.1C178.7,135.1,178.3,135.1,178.3,135.6z"/>
	<path style="opacity:0.498;fill:#FFFFFF;" d="M178.3,135.6c0,0.4,0.8,11.3,3.9,11.2c0.5,0,1.6-0.6,2.9-1.3c2.4-1.1,3.8-1.2,3.8-1.6
		c0-0.5-3.7-2.6-5.9-4.7c-1.3-1.2-3.8-3.7-4.1-4.1C178.7,135.1,178.3,135.1,178.3,135.6z"/>
	<path style="opacity:0.502;fill:#FFFFFF;" d="M178.3,135.6c0,0.4,0.8,11.2,3.9,11.2c0.5,0,1.6-0.6,2.9-1.3c2.4-1.1,3.7-1.2,3.7-1.6
		c0-0.5-3.7-2.6-5.9-4.7c-1.3-1.2-3.8-3.7-4.1-4.1C178.7,135.1,178.3,135.1,178.3,135.6z"/>
	<path style="opacity:0.506;fill:#FFFFFF;" d="M178.3,135.6c0,0.4,0.8,11.2,3.8,11.1c0.5,0,1.6-0.6,2.9-1.3c2.4-1.1,3.7-1.1,3.7-1.6
		c0-0.5-3.7-2.6-5.9-4.6c-1.3-1.2-3.7-3.7-4.1-4.1C178.7,135.1,178.3,135.1,178.3,135.6z"/>
	<path style="opacity:0.51;fill:#FFFFFF;" d="M178.3,135.6c0,0.4,0.8,11.2,3.8,11.1c0.5,0,1.6-0.6,2.9-1.2c2.4-1.1,3.7-1.1,3.7-1.6
		c0-0.5-3.7-2.6-5.8-4.6c-1.3-1.2-3.7-3.7-4-4C178.7,135.1,178.3,135.1,178.3,135.6z"/>
	<path style="opacity:0.5139;fill:#FFFFFF;" d="M178.3,135.6c0,0.4,0.8,11.1,3.8,11.1c0.5,0,1.6-0.6,2.9-1.2
		c2.4-1.1,3.7-1.1,3.7-1.5c0-0.5-3.6-2.6-5.8-4.6c-1.3-1.2-3.7-3.7-4-4C178.7,135.1,178.3,135.1,178.3,135.6z"/>
	<path style="opacity:0.5179;fill:#FFFFFF;" d="M178.3,135.6c0,0.4,0.8,11.1,3.8,11c0.5,0,1.5-0.6,2.9-1.2c2.4-1.1,3.7-1.1,3.7-1.5
		c0-0.5-3.6-2.6-5.8-4.6c-1.3-1.2-3.7-3.7-4-4C178.7,135.1,178.3,135.1,178.3,135.6z"/>
	<path style="opacity:0.5219;fill:#FFFFFF;" d="M178.3,135.6c0,0.4,0.8,11.1,3.8,11c0.5,0,1.5-0.6,2.9-1.2c2.4-1.1,3.7-1.1,3.7-1.5
		c0-0.5-3.6-2.6-5.7-4.6c-1.3-1.2-3.7-3.7-4-4C178.7,135.1,178.3,135.1,178.3,135.6z"/>
	<path style="opacity:0.5259;fill:#FFFFFF;" d="M178.3,135.6c0,0.4,0.8,11,3.8,11c0.5,0,1.5-0.6,2.8-1.2c2.3-1.1,3.6-1.1,3.6-1.5
		c0-0.5-3.6-2.6-5.7-4.6c-1.3-1.2-3.7-3.6-4-4C178.7,135.1,178.3,135.1,178.3,135.6z"/>
	<path style="opacity:0.5299;fill:#FFFFFF;" d="M178.3,135.6c0,0.4,0.8,11,3.8,10.9c0.5,0,1.5-0.6,2.8-1.2c2.3-1.1,3.6-1.1,3.6-1.5
		c0-0.5-3.6-2.6-5.7-4.5c-1.3-1.2-3.7-3.6-4-4C178.7,135.1,178.3,135.1,178.3,135.6z"/>
	<path style="opacity:0.5339;fill:#FFFFFF;" d="M178.3,135.6c0,0.4,0.8,11,3.8,10.9c0.5,0,1.5-0.6,2.8-1.2c2.3-1.1,3.6-1.1,3.6-1.5
		c0-0.5-3.6-2.6-5.7-4.5c-1.3-1.2-3.7-3.6-4-4C178.7,135.1,178.3,135.1,178.3,135.6z"/>
	<path style="opacity:0.5378;fill:#FFFFFF;" d="M178.3,135.6c0,0.3,0.8,10.9,3.8,10.9c0.5,0,1.5-0.6,2.8-1.2
		c2.3-1.1,3.6-1.1,3.6-1.5c0-0.5-3.6-2.6-5.6-4.5c-1.3-1.2-3.6-3.6-4-4C178.7,135.1,178.3,135.1,178.3,135.6z"/>
	<path style="opacity:0.5418;fill:#FFFFFF;" d="M178.3,135.6c0,0.3,0.8,10.9,3.8,10.8c0.5,0,1.5-0.6,2.8-1.2
		c2.3-1.1,3.6-1.1,3.6-1.5c0-0.5-3.5-2.6-5.6-4.5c-1.3-1.2-3.6-3.6-4-4C178.7,135.1,178.3,135.1,178.3,135.6z"/>
	<path style="opacity:0.5458;fill:#FFFFFF;" d="M178.3,135.7c0,0.3,0.8,10.9,3.7,10.8c0.5,0,1.5-0.6,2.8-1.2
		c2.3-1.1,3.6-1.1,3.6-1.5c0-0.5-3.5-2.6-5.6-4.5c-1.3-1.2-3.6-3.6-3.9-3.9C178.7,135.1,178.3,135.1,178.3,135.7z"/>
	<path style="opacity:0.5498;fill:#FFFFFF;" d="M178.3,135.7c0,0.3,0.8,10.8,3.7,10.8c0.5,0,1.5-0.6,2.8-1.2
		c2.3-1.1,3.5-1.1,3.5-1.5c0-0.5-3.5-2.6-5.6-4.5c-1.3-1.2-3.6-3.6-3.9-3.9C178.7,135.1,178.3,135.1,178.3,135.7z"/>
	<path style="opacity:0.5538;fill:#FFFFFF;" d="M178.3,135.7c0,0.3,0.8,10.8,3.7,10.7c0.5,0,1.5-0.6,2.8-1.2
		c2.3-1.1,3.5-1.1,3.5-1.5c0-0.5-3.5-2.6-5.5-4.4c-1.2-1.2-3.6-3.6-3.9-3.9C178.7,135.2,178.3,135.1,178.3,135.7z"/>
	<path style="opacity:0.5578;fill:#FFFFFF;" d="M178.3,135.7c0,0.3,0.8,10.8,3.7,10.7c0.5,0,1.5-0.6,2.7-1.2c2.2-1,3.5-1.1,3.5-1.5
		c0-0.5-3.5-2.6-5.5-4.4c-1.2-1.1-3.6-3.5-3.9-3.9C178.7,135.2,178.3,135.1,178.3,135.7z"/>
	<path style="opacity:0.5618;fill:#FFFFFF;" d="M178.3,135.7c0,0.3,0.8,10.7,3.7,10.7c0.5,0,1.5-0.6,2.7-1.2c2.2-1,3.5-1.1,3.5-1.5
		c0-0.5-3.5-2.6-5.5-4.4c-1.2-1.1-3.6-3.5-3.9-3.9C178.7,135.2,178.3,135.1,178.3,135.7z"/>
	<path style="opacity:0.5657;fill:#FFFFFF;" d="M178.3,135.7c0,0.3,0.8,10.7,3.7,10.6c0.5,0,1.5-0.6,2.7-1.2c2.2-1,3.5-1.1,3.5-1.5
		c0-0.5-3.5-2.5-5.5-4.4c-1.2-1.1-3.6-3.5-3.9-3.9C178.7,135.2,178.3,135.1,178.3,135.7z"/>
	<path style="opacity:0.5697;fill:#FFFFFF;" d="M178.3,135.7c0,0.3,0.8,10.7,3.7,10.6c0.5,0,1.5-0.6,2.7-1.2c2.2-1,3.4-1.1,3.4-1.5
		c0-0.5-3.4-2.5-5.4-4.4c-1.2-1.1-3.5-3.5-3.9-3.9C178.7,135.2,178.3,135.1,178.3,135.7z"/>
	<path style="opacity:0.5737;fill:#FFFFFF;" d="M178.3,135.7c0,0.3,0.8,10.6,3.7,10.6c0.5,0,1.4-0.6,2.7-1.2c2.2-1,3.4-1.1,3.4-1.5
		c0-0.5-3.4-2.5-5.4-4.4c-1.2-1.1-3.5-3.5-3.9-3.9C178.7,135.2,178.3,135.1,178.3,135.7z"/>
	<path style="opacity:0.5777;fill:#FFFFFF;" d="M178.3,135.7c0,0.3,0.8,10.6,3.7,10.5c0.5,0,1.4-0.6,2.7-1.2c2.2-1,3.4-1.1,3.4-1.5
		c0-0.5-3.4-2.5-5.4-4.3c-1.2-1.1-3.5-3.5-3.9-3.9C178.7,135.2,178.3,135.1,178.3,135.7z"/>
	<path style="opacity:0.5817;fill:#FFFFFF;" d="M178.3,135.7c0,0.3,0.8,10.6,3.7,10.5c0.5,0,1.4-0.6,2.7-1.2c2.2-1,3.4-1.1,3.4-1.5
		c0-0.5-3.4-2.5-5.4-4.3c-1.2-1.1-3.5-3.5-3.8-3.8C178.7,135.2,178.3,135.2,178.3,135.7z"/>
	<path style="opacity:0.5857;fill:#FFFFFF;" d="M178.3,135.7c0,0.3,0.8,10.5,3.7,10.5c0.5,0,1.4-0.6,2.7-1.2c2.1-1,3.4-1.1,3.4-1.5
		c0-0.5-3.4-2.5-5.3-4.3c-1.2-1.1-3.5-3.5-3.8-3.8C178.7,135.2,178.3,135.2,178.3,135.7z"/>
	<path style="opacity:0.5896;fill:#FFFFFF;" d="M178.3,135.7c0,0.3,0.8,10.5,3.6,10.4c0.5,0,1.4-0.6,2.7-1.2c2.1-1,3.4-1.1,3.4-1.5
		c0-0.5-3.4-2.5-5.3-4.3c-1.2-1.1-3.5-3.4-3.8-3.8C178.7,135.2,178.3,135.2,178.3,135.7z"/>
	<path style="opacity:0.5936;fill:#FFFFFF;" d="M178.3,135.7c0,0.3,0.8,10.5,3.6,10.4c0.5,0,1.4-0.6,2.6-1.2c2.1-1,3.3-1,3.3-1.4
		c0-0.5-3.4-2.5-5.3-4.3c-1.2-1.1-3.5-3.4-3.8-3.8C178.7,135.2,178.3,135.2,178.3,135.7z"/>
	<path style="opacity:0.5976;fill:#FFFFFF;" d="M178.3,135.7c0,0.3,0.8,10.4,3.6,10.4c0.5,0,1.4-0.6,2.6-1.2c2.1-1,3.3-1,3.3-1.4
		c0-0.5-3.3-2.5-5.2-4.3c-1.2-1.1-3.5-3.4-3.8-3.8C178.7,135.2,178.3,135.2,178.3,135.7z"/>
	<path style="opacity:0.6016;fill:#FFFFFF;" d="M178.3,135.7c0,0.3,0.8,10.4,3.6,10.3c0.5,0,1.4-0.6,2.6-1.2c2.1-1,3.3-1,3.3-1.4
		c0-0.5-3.3-2.5-5.2-4.2c-1.2-1.1-3.4-3.4-3.8-3.8C178.7,135.2,178.3,135.2,178.3,135.7z"/>
	<path style="opacity:0.6056;fill:#FFFFFF;" d="M178.3,135.7c0,0.3,0.8,10.4,3.6,10.3c0.5,0,1.4-0.6,2.6-1.2c2.1-1,3.3-1,3.3-1.4
		c0-0.5-3.3-2.5-5.2-4.2c-1.2-1.1-3.4-3.4-3.8-3.8C178.7,135.2,178.3,135.2,178.3,135.7z"/>
	<path style="opacity:0.6096;fill:#FFFFFF;" d="M178.4,135.7c0,0.3,0.8,10.3,3.6,10.3c0.5,0,1.4-0.6,2.6-1.2c2.1-1,3.3-1,3.3-1.4
		c0-0.5-3.3-2.5-5.2-4.2c-1.2-1.1-3.4-3.4-3.8-3.8C178.7,135.2,178.4,135.2,178.4,135.7z"/>
	<path style="opacity:0.6135;fill:#FFFFFF;" d="M178.4,135.7c0,0.3,0.8,10.3,3.6,10.2c0.5,0,1.4-0.6,2.6-1.2c2.1-1,3.3-1,3.3-1.4
		c0-0.5-3.3-2.5-5.1-4.2c-1.2-1.1-3.4-3.4-3.8-3.7C178.7,135.2,178.4,135.2,178.4,135.7z"/>
	<path style="opacity:0.6175;fill:#FFFFFF;" d="M178.4,135.7c0,0.3,0.8,10.3,3.6,10.2c0.5,0,1.4-0.6,2.6-1.2c2-1,3.2-1,3.2-1.4
		c0-0.5-3.3-2.5-5.1-4.2c-1.2-1.1-3.4-3.4-3.7-3.7C178.7,135.2,178.4,135.2,178.4,135.7z"/>
	<path style="opacity:0.6215;fill:#FFFFFF;" d="M178.4,135.7c0,0.3,0.8,10.2,3.6,10.2c0.5,0,1.4-0.6,2.6-1.2c2-1,3.2-1,3.2-1.4
		c0-0.5-3.3-2.5-5.1-4.2c-1.2-1.1-3.4-3.4-3.7-3.7C178.7,135.2,178.4,135.2,178.4,135.7z"/>
	<path style="opacity:0.6255;fill:#FFFFFF;" d="M178.4,135.7c0,0.3,0.8,10.2,3.6,10.1c0.5,0,1.4-0.6,2.5-1.2c2-1,3.2-1,3.2-1.4
		c0-0.5-3.2-2.5-5.1-4.1c-1.2-1.1-3.4-3.3-3.7-3.7C178.7,135.2,178.4,135.2,178.4,135.7z"/>
	<path style="opacity:0.6295;fill:#FFFFFF;" d="M178.4,135.7c0,0.3,0.8,10.2,3.5,10.1c0.5,0,1.4-0.6,2.5-1.2c2-1,3.2-1,3.2-1.4
		c0-0.5-3.2-2.5-5-4.1c-1.2-1.1-3.4-3.3-3.7-3.7C178.7,135.2,178.4,135.2,178.4,135.7z"/>
	<path style="opacity:0.6335;fill:#FFFFFF;" d="M178.4,135.7c0,0.3,0.8,10.1,3.5,10c0.4,0,1.3-0.6,2.5-1.2c2-1,3.2-1,3.2-1.4
		c0-0.5-3.2-2.4-5-4.1c-1.2-1.1-3.4-3.3-3.7-3.7C178.7,135.2,178.4,135.2,178.4,135.7z"/>
	<path style="opacity:0.6375;fill:#FFFFFF;" d="M178.4,135.7c0,0.3,0.8,10.1,3.5,10c0.4,0,1.3-0.6,2.5-1.2c2-0.9,3.1-1,3.1-1.4
		c0-0.5-3.2-2.4-5-4.1c-1.2-1.1-3.3-3.3-3.7-3.7C178.7,135.2,178.4,135.2,178.4,135.7z"/>
	<path style="opacity:0.6414;fill:#FFFFFF;" d="M178.4,135.7c0,0.3,0.8,10.1,3.5,10c0.4,0,1.3-0.6,2.5-1.2c2-0.9,3.1-1,3.1-1.4
		c0-0.5-3.2-2.4-5-4.1c-1.2-1.1-3.3-3.3-3.7-3.7C178.7,135.2,178.4,135.2,178.4,135.7z"/>
	<path style="opacity:0.6454;fill:#FFFFFF;" d="M178.4,135.7c0,0.3,0.8,10,3.5,9.9c0.4,0,1.3-0.6,2.5-1.2c1.9-0.9,3.1-1,3.1-1.4
		c0-0.5-3.2-2.4-4.9-4.1c-1.2-1.1-3.3-3.3-3.7-3.7C178.7,135.2,178.4,135.2,178.4,135.7z"/>
	<path style="opacity:0.6494;fill:#FFFFFF;" d="M178.4,135.7c0,0.3,0.8,10,3.5,9.9c0.4,0,1.3-0.6,2.5-1.2c1.9-0.9,3.1-1,3.1-1.4
		c0-0.5-3.1-2.4-4.9-4c-1.1-1.1-3.3-3.3-3.7-3.6C178.7,135.2,178.4,135.2,178.4,135.7z"/>
	<path style="opacity:0.6534;fill:#FFFFFF;" d="M178.4,135.7c0,0.3,0.8,10,3.5,9.9c0.4,0,1.3-0.6,2.5-1.2c1.9-0.9,3.1-1,3.1-1.4
		c0-0.5-3.1-2.4-4.9-4c-1.1-1.1-3.3-3.3-3.6-3.6C178.8,135.3,178.4,135.2,178.4,135.7z"/>
	<path style="opacity:0.6574;fill:#FFFFFF;" d="M178.4,135.7c0,0.3,0.8,9.9,3.5,9.8c0.4,0,1.3-0.6,2.4-1.1c1.9-0.9,3.1-1,3.1-1.4
		c0-0.5-3.1-2.4-4.9-4c-1.1-1.1-3.3-3.2-3.6-3.6C178.8,135.3,178.4,135.2,178.4,135.7z"/>
	<path style="opacity:0.6614;fill:#FFFFFF;" d="M178.4,135.7c0,0.3,0.8,9.9,3.5,9.8c0.4,0,1.3-0.6,2.4-1.1c1.9-0.9,3-1,3-1.4
		c0-0.5-3.1-2.4-4.8-4c-1.1-1-3.3-3.2-3.6-3.6C178.8,135.3,178.4,135.2,178.4,135.7z"/>
	<path style="opacity:0.6653;fill:#FFFFFF;" d="M178.4,135.7c0,0.3,0.8,9.9,3.5,9.8c0.4,0,1.3-0.6,2.4-1.1c1.9-0.9,3-1,3-1.4
		c0-0.5-3.1-2.4-4.8-4c-1.1-1-3.3-3.2-3.6-3.6C178.8,135.3,178.4,135.2,178.4,135.7z"/>
	<path style="opacity:0.6693;fill:#FFFFFF;" d="M178.4,135.7c0,0.3,0.8,9.8,3.4,9.7c0.4,0,1.3-0.6,2.4-1.1c1.9-0.9,3-1,3-1.4
		c0-0.5-3.1-2.4-4.8-4c-1.1-1-3.2-3.2-3.6-3.6C178.8,135.3,178.4,135.2,178.4,135.7z"/>
	<path style="opacity:0.6733;fill:#FFFFFF;" d="M178.4,135.7c0,0.3,0.8,9.8,3.4,9.7c0.4,0,1.3-0.6,2.4-1.1c1.8-0.9,3-1,3-1.3
		c0-0.5-3.1-2.4-4.7-3.9c-1.1-1-3.2-3.2-3.6-3.6C178.8,135.3,178.4,135.2,178.4,135.7z"/>
	<path style="opacity:0.6773;fill:#FFFFFF;" d="M178.4,135.7c0,0.3,0.8,9.8,3.4,9.7c0.4,0,1.3-0.6,2.4-1.1c1.8-0.9,3-1,3-1.3
		c0-0.5-3-2.4-4.7-3.9c-1.1-1-3.2-3.2-3.6-3.6C178.8,135.3,178.4,135.2,178.4,135.7z"/>
	<path style="opacity:0.6813;fill:#FFFFFF;" d="M178.4,135.7c0,0.3,0.8,9.7,3.4,9.6c0.4,0,1.3-0.6,2.4-1.1c1.8-0.9,3-0.9,3-1.3
		c0-0.5-3-2.4-4.7-3.9c-1.1-1-3.2-3.2-3.6-3.6C178.8,135.3,178.4,135.3,178.4,135.7z"/>
	<path style="opacity:0.6853;fill:#FFFFFF;" d="M178.4,135.7c0,0.3,0.8,9.7,3.4,9.6c0.4,0,1.3-0.6,2.4-1.1c1.8-0.9,2.9-0.9,2.9-1.3
		c0-0.5-3-2.4-4.7-3.9c-1.1-1-3.2-3.2-3.6-3.5C178.8,135.3,178.4,135.3,178.4,135.7z"/>
	<path style="opacity:0.6892;fill:#FFFFFF;" d="M178.4,135.7c0,0.3,0.8,9.7,3.4,9.6c0.4,0,1.2-0.6,2.3-1.1c1.8-0.9,2.9-0.9,2.9-1.3
		c0-0.5-3-2.4-4.6-3.9c-1.1-1-3.2-3.1-3.5-3.5C178.8,135.3,178.4,135.3,178.4,135.7z"/>
	<path style="opacity:0.6932;fill:#FFFFFF;" d="M178.4,135.7c0,0.3,0.8,9.6,3.4,9.5c0.4,0,1.2-0.6,2.3-1.1c1.8-0.9,2.9-0.9,2.9-1.3
		c0-0.5-3-2.4-4.6-3.9c-1.1-1-3.2-3.1-3.5-3.5C178.8,135.3,178.4,135.3,178.4,135.7z"/>
	<path style="opacity:0.6972;fill:#FFFFFF;" d="M178.4,135.7c0,0.3,0.8,9.6,3.4,9.5c0.4,0,1.2-0.6,2.3-1.1c1.8-0.9,2.9-0.9,2.9-1.3
		c0-0.5-3-2.4-4.6-3.8c-1.1-1-3.2-3.1-3.5-3.5C178.8,135.3,178.4,135.3,178.4,135.7z"/>
	<path style="opacity:0.7012;fill:#FFFFFF;" d="M178.4,135.7c0,0.3,0.8,9.6,3.4,9.5c0.4,0,1.2-0.6,2.3-1.1c1.8-0.9,2.9-0.9,2.9-1.3
		c0-0.5-3-2.4-4.6-3.8c-1.1-1-3.1-3.1-3.5-3.5C178.8,135.3,178.4,135.3,178.4,135.7z"/>
	<path style="opacity:0.7052;fill:#FFFFFF;" d="M178.4,135.7c0,0.3,0.8,9.5,3.4,9.4c0.4,0,1.2-0.6,2.3-1.1c1.7-0.9,2.8-0.9,2.8-1.3
		c0-0.5-2.9-2.3-4.5-3.8c-1.1-1-3.1-3.1-3.5-3.5C178.8,135.3,178.4,135.3,178.4,135.7z"/>
	<path style="opacity:0.7092;fill:#FFFFFF;" d="M178.4,135.7c0,0.3,0.8,9.5,3.3,9.4c0.4,0,1.2-0.6,2.3-1.1c1.7-0.9,2.8-0.9,2.8-1.3
		c0-0.5-2.9-2.3-4.5-3.8c-1.1-1-3.1-3.1-3.5-3.5C178.8,135.3,178.4,135.3,178.4,135.7z"/>
	<path style="opacity:0.7131;fill:#FFFFFF;" d="M178.4,135.7c0,0.3,0.8,9.5,3.3,9.4c0.4,0,1.2-0.6,2.3-1.1c1.7-0.8,2.8-0.9,2.8-1.3
		c0-0.5-2.9-2.3-4.5-3.8c-1.1-1-3.1-3.1-3.5-3.5C178.8,135.3,178.4,135.3,178.4,135.7z"/>
	<path style="opacity:0.7171;fill:#FFFFFF;" d="M178.4,135.7c0,0.3,0.8,9.4,3.3,9.3c0.4,0,1.2-0.6,2.3-1.1c1.7-0.8,2.8-0.9,2.8-1.3
		c0-0.5-2.9-2.3-4.5-3.8c-1.1-1-3.1-3.1-3.5-3.5C178.8,135.3,178.4,135.3,178.4,135.7z"/>
	<path style="opacity:0.7211;fill:#FFFFFF;" d="M178.4,135.7c0,0.3,0.8,9.4,3.3,9.3c0.4,0,1.2-0.6,2.3-1.1c1.7-0.8,2.8-0.9,2.8-1.3
		c0-0.5-2.9-2.3-4.4-3.7c-1.1-1-3.1-3-3.4-3.4C178.8,135.3,178.4,135.3,178.4,135.7z"/>
	<path style="opacity:0.7251;fill:#FFFFFF;" d="M178.4,135.7c0,0.3,0.8,9.4,3.3,9.3c0.4,0,1.2-0.6,2.2-1.1c1.7-0.8,2.8-0.9,2.8-1.3
		c0-0.5-2.9-2.3-4.4-3.7c-1.1-1-3.1-3-3.4-3.4C178.8,135.3,178.4,135.3,178.4,135.7z"/>
	<path style="opacity:0.7291;fill:#FFFFFF;" d="M178.4,135.7c0,0.3,0.8,9.3,3.3,9.2c0.4,0,1.2-0.6,2.2-1.1c1.7-0.8,2.7-0.9,2.7-1.3
		c0-0.5-2.9-2.3-4.4-3.7c-1.1-1-3.1-3-3.4-3.4C178.8,135.3,178.4,135.3,178.4,135.7z"/>
	<path style="opacity:0.7331;fill:#FFFFFF;" d="M178.4,135.8c0,0.3,0.8,9.3,3.3,9.2c0.4,0,1.2-0.6,2.2-1.1c1.6-0.8,2.7-0.9,2.7-1.3
		c0-0.5-2.8-2.3-4.4-3.7c-1.1-1-3.1-3-3.4-3.4C178.8,135.3,178.4,135.3,178.4,135.8z"/>
	<path style="opacity:0.7371;fill:#FFFFFF;" d="M178.4,135.8c0,0.3,0.8,9.3,3.3,9.2c0.4,0,1.2-0.6,2.2-1.1c1.6-0.8,2.7-0.9,2.7-1.3
		c0-0.5-2.8-2.3-4.3-3.7c-1.1-1-3-3-3.4-3.4C178.8,135.3,178.4,135.3,178.4,135.8z"/>
	<path style="opacity:0.741;fill:#FFFFFF;" d="M178.5,135.8c0,0.3,0.8,9.2,3.3,9.1c0.4,0,1.2-0.6,2.2-1.1c1.6-0.8,2.7-0.9,2.7-1.3
		c0-0.5-2.8-2.3-4.3-3.7c-1.1-1-3-3-3.4-3.4C178.8,135.3,178.5,135.3,178.5,135.8z"/>
	<path style="opacity:0.745;fill:#FFFFFF;" d="M178.5,135.8c0,0.3,0.8,9.2,3.3,9.1c0.4,0,1.2-0.6,2.2-1.1c1.6-0.8,2.7-0.9,2.7-1.3
		c0-0.5-2.8-2.3-4.3-3.6c-1.1-1-3-3-3.4-3.4C178.8,135.3,178.5,135.3,178.5,135.8z"/>
	<path style="opacity:0.749;fill:#FFFFFF;" d="M178.5,135.8c0,0.3,0.8,9.2,3.2,9.1c0.4,0,1.1-0.6,2.2-1.1c1.6-0.8,2.7-0.9,2.7-1.3
		c0-0.5-2.8-2.3-4.2-3.6c-1-1-3-3-3.4-3.4C178.8,135.3,178.5,135.3,178.5,135.8z"/>
	<path style="opacity:0.753;fill:#FFFFFF;" d="M178.5,135.8c0,0.3,0.8,9.1,3.2,9c0.4,0,1.1-0.6,2.2-1.1c1.6-0.8,2.6-0.9,2.6-1.2
		c0-0.5-2.8-2.3-4.2-3.6c-1-1-3-3-3.4-3.4C178.8,135.3,178.5,135.3,178.5,135.8z"/>
	<path style="opacity:0.757;fill:#FFFFFF;" d="M178.5,135.8c0,0.3,0.8,9.1,3.2,9c0.4,0,1.1-0.6,2.1-1.1c1.6-0.8,2.6-0.9,2.6-1.2
		c0-0.5-2.8-2.3-4.2-3.6c-1-1-3-2.9-3.3-3.3C178.8,135.4,178.5,135.3,178.5,135.8z"/>
	<path style="opacity:0.761;fill:#FFFFFF;" d="M178.5,135.8c0,0.3,0.8,9,3.2,9c0.4,0,1.1-0.6,2.1-1.1c1.5-0.8,2.6-0.9,2.6-1.2
		c0-0.5-2.7-2.3-4.2-3.6c-1-1-3-2.9-3.3-3.3C178.8,135.4,178.5,135.3,178.5,135.8z"/>
	<path style="opacity:0.7649;fill:#FFFFFF;" d="M178.5,135.8c0,0.3,0.8,9,3.2,8.9c0.4,0,1.1-0.6,2.1-1.1c1.5-0.8,2.6-0.9,2.6-1.2
		c0-0.5-2.7-2.3-4.1-3.6c-1-0.9-3-2.9-3.3-3.3C178.8,135.4,178.5,135.3,178.5,135.8z"/>
	<path style="opacity:0.7689;fill:#FFFFFF;" d="M178.5,135.8c0,0.3,0.8,9,3.2,8.9c0.4,0,1.1-0.6,2.1-1.1c1.5-0.8,2.6-0.8,2.6-1.2
		c0-0.5-2.7-2.3-4.1-3.5c-1-0.9-2.9-2.9-3.3-3.3C178.8,135.4,178.5,135.3,178.5,135.8z"/>
	<path style="opacity:0.7729;fill:#FFFFFF;" d="M178.5,135.8c0,0.3,0.8,8.9,3.2,8.9c0.4,0,1.1-0.6,2.1-1.1c1.5-0.8,2.5-0.8,2.5-1.2
		c0-0.5-2.7-2.3-4.1-3.5c-1-0.9-2.9-2.9-3.3-3.3C178.8,135.4,178.5,135.3,178.5,135.8z"/>
	<path style="opacity:0.7769;fill:#FFFFFF;" d="M178.5,135.8c0,0.3,0.8,8.9,3.2,8.8c0.4,0,1.1-0.6,2.1-1.1c1.5-0.8,2.5-0.8,2.5-1.2
		c0-0.5-2.7-2.2-4.1-3.5c-1-0.9-2.9-2.9-3.3-3.3C178.8,135.4,178.5,135.4,178.5,135.8z"/>
	<path style="opacity:0.7809;fill:#FFFFFF;" d="M178.5,135.8c0,0.3,0.8,8.9,3.2,8.8c0.4,0,1.1-0.6,2.1-1.1c1.5-0.8,2.5-0.8,2.5-1.2
		c0-0.5-2.7-2.2-4-3.5c-1-0.9-2.9-2.9-3.3-3.3C178.8,135.4,178.5,135.4,178.5,135.8z"/>
	<path style="opacity:0.7849;fill:#FFFFFF;" d="M178.5,135.8c0,0.3,0.8,8.8,3.2,8.7c0.4,0,1.1-0.6,2.1-1.1c1.5-0.8,2.5-0.8,2.5-1.2
		c0-0.5-2.7-2.2-4-3.5c-1-0.9-2.9-2.9-3.3-3.3C178.8,135.4,178.5,135.4,178.5,135.8z"/>
	<path style="opacity:0.7888;fill:#FFFFFF;" d="M178.5,135.8c0,0.3,0.8,8.8,3.1,8.7c0.4,0,1.1-0.6,2-1.1c1.5-0.7,2.5-0.8,2.5-1.2
		c0-0.5-2.6-2.2-4-3.5c-1-0.9-2.9-2.8-3.3-3.3C178.8,135.4,178.5,135.4,178.5,135.8z"/>
	<path style="opacity:0.7928;fill:#FFFFFF;" d="M178.5,135.8c0,0.3,0.8,8.8,3.1,8.7c0.4,0,1.1-0.6,2-1.1c1.4-0.7,2.5-0.8,2.5-1.2
		c0-0.5-2.6-2.2-4-3.5c-1-0.9-2.9-2.8-3.2-3.2C178.8,135.4,178.5,135.4,178.5,135.8z"/>
	<path style="opacity:0.7968;fill:#FFFFFF;" d="M178.5,135.8c0,0.3,0.8,8.7,3.1,8.6c0.4,0,1.1-0.6,2-1.1c1.4-0.7,2.4-0.8,2.4-1.2
		c0-0.5-2.6-2.2-3.9-3.4c-1-0.9-2.9-2.8-3.2-3.2C178.8,135.4,178.5,135.4,178.5,135.8z"/>
	<path style="opacity:0.8008;fill:#FFFFFF;" d="M178.5,135.8c0,0.3,0.8,8.7,3.1,8.6c0.4,0,1.1-0.6,2-1c1.4-0.7,2.4-0.8,2.4-1.2
		c0-0.5-2.6-2.2-3.9-3.4c-1-0.9-2.8-2.8-3.2-3.2C178.8,135.4,178.5,135.4,178.5,135.8z"/>
	<path style="opacity:0.8048;fill:#FFFFFF;" d="M178.5,135.8c0,0.3,0.8,8.7,3.1,8.6c0.4,0,1-0.6,2-1c1.4-0.7,2.4-0.8,2.4-1.2
		c0-0.5-2.6-2.2-3.9-3.4c-1-0.9-2.8-2.8-3.2-3.2C178.8,135.4,178.5,135.4,178.5,135.8z"/>
	<path style="opacity:0.8088;fill:#FFFFFF;" d="M178.5,135.8c0,0.3,0.8,8.6,3.1,8.5c0.4,0,1-0.6,2-1c1.4-0.7,2.4-0.8,2.4-1.2
		c0-0.5-2.6-2.2-3.9-3.4c-1-0.9-2.8-2.8-3.2-3.2C178.8,135.4,178.5,135.4,178.5,135.8z"/>
	<path style="opacity:0.8127;fill:#FFFFFF;" d="M178.5,135.8c0,0.3,0.8,8.6,3.1,8.5c0.4,0,1-0.6,2-1c1.4-0.7,2.4-0.8,2.4-1.2
		c0-0.5-2.6-2.2-3.8-3.4c-1-0.9-2.8-2.8-3.2-3.2C178.8,135.4,178.5,135.4,178.5,135.8z"/>
	<path style="opacity:0.8167;fill:#FFFFFF;" d="M178.5,135.8c0,0.3,0.8,8.6,3.1,8.5c0.4,0,1-0.6,2-1c1.4-0.7,2.4-0.8,2.4-1.2
		c0-0.5-2.5-2.2-3.8-3.4c-1-0.9-2.8-2.8-3.2-3.2C178.8,135.4,178.5,135.4,178.5,135.8z"/>
	<path style="opacity:0.8207;fill:#FFFFFF;" d="M178.5,135.8c0,0.3,0.8,8.5,3.1,8.4c0.4,0,1-0.5,1.9-1c1.3-0.7,2.3-0.8,2.3-1.2
		c0-0.5-2.5-2.2-3.8-3.3c-1-0.9-2.8-2.7-3.2-3.2C178.8,135.4,178.5,135.4,178.5,135.8z"/>
	<path style="opacity:0.8247;fill:#FFFFFF;" d="M178.5,135.8c0,0.3,0.8,8.5,3.1,8.4c0.4,0,1-0.5,1.9-1c1.3-0.7,2.3-0.8,2.3-1.2
		c0-0.5-2.5-2.2-3.7-3.3c-1-0.9-2.8-2.7-3.2-3.2C178.8,135.4,178.5,135.4,178.5,135.8z"/>
	<path style="opacity:0.8287;fill:#FFFFFF;" d="M178.5,135.8c0,0.3,0.8,8.5,3,8.4c0.4,0,1-0.5,1.9-1c1.3-0.7,2.3-0.8,2.3-1.2
		c0-0.5-2.5-2.2-3.7-3.3c-1-0.9-2.8-2.7-3.1-3.1C178.8,135.4,178.5,135.4,178.5,135.8z"/>
	<path style="opacity:0.8327;fill:#FFFFFF;" d="M178.5,135.8c0,0.3,0.8,8.4,3,8.3c0.4,0,1-0.5,1.9-1c1.3-0.7,2.3-0.8,2.3-1.1
		c0-0.4-2.5-2.2-3.7-3.3c-1-0.9-2.8-2.7-3.1-3.1C178.8,135.4,178.5,135.4,178.5,135.8z"/>
	<path style="opacity:0.8367;fill:#FFFFFF;" d="M178.5,135.8c0,0.3,0.9,8.4,3,8.3c0.4,0,1-0.5,1.9-1c1.3-0.7,2.3-0.8,2.3-1.1
		c0-0.4-2.5-2.2-3.7-3.3c-1-0.9-2.7-2.7-3.1-3.1C178.8,135.4,178.5,135.4,178.5,135.8z"/>
	<path style="opacity:0.8406;fill:#FFFFFF;" d="M178.5,135.8c0,0.3,0.9,8.4,3,8.3c0.4,0,1-0.5,1.9-1c1.3-0.7,2.2-0.8,2.2-1.1
		c0-0.4-2.5-2.2-3.6-3.3c-1-0.9-2.7-2.7-3.1-3.1C178.8,135.4,178.5,135.4,178.5,135.8z"/>
	<path style="opacity:0.8446;fill:#FFFFFF;" d="M178.5,135.8c0,0.3,0.9,8.3,3,8.2c0.4,0,1-0.5,1.9-1c1.3-0.7,2.2-0.8,2.2-1.1
		c0-0.4-2.4-2.2-3.6-3.2c-0.9-0.9-2.7-2.7-3.1-3.1C178.8,135.4,178.5,135.4,178.5,135.8z"/>
	<path style="opacity:0.8486;fill:#FFFFFF;" d="M178.5,135.8c0,0.3,0.9,8.3,3,8.2c0.4,0,1-0.5,1.9-1c1.3-0.7,2.2-0.8,2.2-1.1
		c0-0.4-2.4-2.1-3.6-3.2c-0.9-0.9-2.7-2.7-3.1-3.1C178.8,135.4,178.5,135.4,178.5,135.8z"/>
	<path style="opacity:0.8526;fill:#FFFFFF;" d="M178.5,135.8c0,0.2,0.9,8.3,3,8.2c0.4,0,1-0.5,1.9-1c1.2-0.7,2.2-0.7,2.2-1.1
		c0-0.4-2.4-2.1-3.6-3.2c-0.9-0.9-2.7-2.7-3.1-3.1C178.8,135.4,178.5,135.4,178.5,135.8z"/>
	<path style="opacity:0.8566;fill:#FFFFFF;" d="M178.5,135.8c0,0.2,0.9,8.2,3,8.1c0.4,0,1-0.5,1.8-1c1.2-0.7,2.2-0.7,2.2-1.1
		c0-0.4-2.4-2.1-3.5-3.2c-0.9-0.9-2.7-2.6-3.1-3.1C178.8,135.5,178.5,135.4,178.5,135.8z"/>
	<path style="opacity:0.8606;fill:#FFFFFF;" d="M178.5,135.8c0,0.2,0.9,8.2,3,8.1c0.4,0,1-0.5,1.8-1c1.2-0.7,2.2-0.7,2.2-1.1
		c0-0.4-2.4-2.1-3.5-3.2c-0.9-0.9-2.7-2.6-3.1-3.1C178.8,135.5,178.5,135.4,178.5,135.8z"/>
	<path style="opacity:0.8645;fill:#FFFFFF;" d="M178.5,135.8c0,0.2,0.9,8.2,3,8.1c0.4,0,0.9-0.5,1.8-1c1.2-0.6,2.1-0.7,2.1-1.1
		c0-0.4-2.4-2.1-3.5-3.2c-0.9-0.9-2.7-2.6-3-3C178.8,135.5,178.5,135.4,178.5,135.8z"/>
	<path style="opacity:0.8685;fill:#FFFFFF;" d="M178.5,135.8c0,0.2,0.9,8.1,2.9,8c0.4,0,0.9-0.5,1.8-1c1.2-0.6,2.1-0.7,2.1-1.1
		c0-0.4-2.3-2.1-3.5-3.1c-0.9-0.8-2.6-2.6-3-3C178.8,135.5,178.5,135.4,178.5,135.8z"/>
	<path style="opacity:0.8725;fill:#FFFFFF;" d="M178.6,135.8c0,0.2,0.9,8.1,2.9,8c0.4,0,0.9-0.5,1.8-1c1.2-0.6,2.1-0.7,2.1-1.1
		c0-0.4-2.3-2.1-3.4-3.1c-0.9-0.8-2.6-2.6-3-3C178.8,135.5,178.6,135.4,178.6,135.8z"/>
	<path style="opacity:0.8765;fill:#FFFFFF;" d="M178.6,135.8c0,0.2,0.9,8.1,2.9,8c0.4,0,0.9-0.5,1.8-1c1.2-0.6,2.1-0.7,2.1-1.1
		c0-0.4-2.3-2.1-3.4-3.1c-0.9-0.8-2.6-2.6-3-3C178.8,135.5,178.6,135.5,178.6,135.8z"/>
	<path style="opacity:0.8805;fill:#FFFFFF;" d="M178.6,135.8c0,0.2,0.9,8,2.9,7.9c0.4,0,0.9-0.5,1.8-1c1.1-0.6,2.1-0.7,2.1-1.1
		c0-0.4-2.3-2.1-3.4-3.1c-0.9-0.8-2.6-2.6-3-3C178.8,135.5,178.6,135.5,178.6,135.8z"/>
	<path style="opacity:0.8845;fill:#FFFFFF;" d="M178.6,135.8c0,0.2,0.9,8,2.9,7.9c0.4,0,0.9-0.5,1.8-1c1.1-0.6,2.1-0.7,2.1-1.1
		c0-0.4-2.3-2.1-3.4-3.1c-0.9-0.8-2.6-2.6-3-3C178.8,135.5,178.6,135.5,178.6,135.8z"/>
	<path style="opacity:0.8884;fill:#FFFFFF;" d="M178.6,135.8c0,0.2,0.9,8,2.9,7.9c0.4,0,0.9-0.5,1.7-1c1.1-0.6,2-0.7,2-1.1
		c0-0.4-2.3-2.1-3.3-3.1c-0.9-0.8-2.6-2.5-3-3C178.8,135.5,178.6,135.5,178.6,135.8z"/>
	<path style="opacity:0.8924;fill:#FFFFFF;" d="M178.6,135.8c0,0.2,0.9,7.9,2.9,7.8c0.4,0,0.9-0.5,1.7-1c1.1-0.6,2-0.7,2-1.1
		c0-0.4-2.3-2.1-3.3-3c-0.9-0.8-2.6-2.5-3-3C178.8,135.5,178.6,135.5,178.6,135.8z"/>
	<path style="opacity:0.8964;fill:#FFFFFF;" d="M178.6,135.8c0,0.2,0.9,7.9,2.9,7.8c0.4,0,0.9-0.5,1.7-1c1.1-0.6,2-0.7,2-1.1
		c0-0.4-2.2-2.1-3.3-3c-0.9-0.8-2.6-2.5-3-3C178.8,135.5,178.6,135.5,178.6,135.8z"/>
	<path style="opacity:0.9004;fill:#FFFFFF;" d="M178.6,135.8c0,0.2,0.9,7.9,2.9,7.8c0.4,0,0.9-0.5,1.7-1c1.1-0.6,2-0.7,2-1.1
		c0-0.4-2.2-2.1-3.2-3c-0.9-0.8-2.5-2.5-2.9-2.9C178.8,135.5,178.6,135.5,178.6,135.8z"/>
	<path style="opacity:0.9044;fill:#FFFFFF;" d="M178.6,135.8c0,0.2,0.9,7.8,2.9,7.7c0.4,0,0.9-0.5,1.7-1c1.1-0.6,2-0.7,2-1.1
		c0-0.4-2.2-2.1-3.2-3c-0.9-0.8-2.5-2.5-2.9-2.9C178.8,135.5,178.6,135.5,178.6,135.8z"/>
	<path style="opacity:0.9084;fill:#FFFFFF;" d="M178.6,135.8c0,0.2,0.9,7.8,2.8,7.7c0.4,0,0.9-0.5,1.7-1c1.1-0.6,1.9-0.7,1.9-1.1
		c0-0.4-2.2-2.1-3.2-3c-0.9-0.8-2.5-2.5-2.9-2.9C178.8,135.5,178.6,135.5,178.6,135.8z"/>
	<path style="opacity:0.9124;fill:#FFFFFF;" d="M178.6,135.8c0,0.2,0.9,7.8,2.8,7.7c0.4,0,0.9-0.5,1.7-1c1-0.6,1.9-0.7,1.9-1
		c0-0.4-2.2-2.1-3.2-3c-0.9-0.8-2.5-2.5-2.9-2.9C178.9,135.5,178.6,135.5,178.6,135.8z"/>
	<path style="opacity:0.9163;fill:#FFFFFF;" d="M178.6,135.8c0,0.2,0.9,7.7,2.8,7.6c0.4,0,0.9-0.5,1.7-1c1-0.6,1.9-0.7,1.9-1
		c0-0.4-2.2-2.1-3.1-2.9c-0.9-0.8-2.5-2.5-2.9-2.9C178.9,135.5,178.6,135.5,178.6,135.8z"/>
	<path style="opacity:0.9203;fill:#FFFFFF;" d="M178.6,135.9c0,0.2,0.9,7.7,2.8,7.6c0.4,0,0.9-0.5,1.6-1c1-0.6,1.9-0.7,1.9-1
		c0-0.4-2.2-2-3.1-2.9c-0.9-0.8-2.5-2.4-2.9-2.9C178.9,135.5,178.6,135.5,178.6,135.9z"/>
	<path style="opacity:0.9243;fill:#FFFFFF;" d="M178.6,135.9c0,0.2,0.9,7.7,2.8,7.6c0.4,0,0.8-0.5,1.6-1c1-0.6,1.9-0.7,1.9-1
		c0-0.4-2.1-2-3.1-2.9c-0.9-0.8-2.5-2.4-2.9-2.9C178.9,135.5,178.6,135.5,178.6,135.9z"/>
	<path style="opacity:0.9283;fill:#FFFFFF;" d="M178.6,135.9c0,0.2,0.9,7.6,2.8,7.5c0.4,0,0.8-0.5,1.6-1c1-0.6,1.9-0.7,1.9-1
		c0-0.4-2.1-2-3.1-2.9c-0.9-0.8-2.5-2.4-2.9-2.9C178.9,135.5,178.6,135.5,178.6,135.9z"/>
	<path style="opacity:0.9323;fill:#FFFFFF;" d="M178.6,135.9c0,0.2,0.9,7.6,2.8,7.5c0.4,0,0.8-0.5,1.6-1c1-0.6,1.8-0.7,1.8-1
		c0-0.4-2.1-2-3-2.9c-0.9-0.8-2.5-2.4-2.8-2.9C178.9,135.5,178.6,135.5,178.6,135.9z"/>
	<path style="opacity:0.9363;fill:#FFFFFF;" d="M178.6,135.9c0,0.2,0.9,7.6,2.8,7.4c0.4,0,0.8-0.5,1.6-1c1-0.6,1.8-0.7,1.8-1
		c0-0.4-2.1-2-3-2.9c-0.9-0.8-2.4-2.4-2.8-2.8C178.9,135.5,178.6,135.5,178.6,135.9z"/>
	<path style="opacity:0.9402;fill:#FFFFFF;" d="M178.6,135.9c0,0.2,0.9,7.5,2.8,7.4c0.4,0,0.8-0.5,1.6-1c0.9-0.5,1.8-0.6,1.8-1
		c0-0.4-2.1-2-3-2.8c-0.9-0.8-2.4-2.4-2.8-2.8C178.9,135.5,178.6,135.5,178.6,135.9z"/>
	<path style="opacity:0.9442;fill:#FFFFFF;" d="M178.6,135.9c0,0.2,0.9,7.5,2.8,7.4c0.4,0,0.8-0.5,1.6-1c0.9-0.5,1.8-0.6,1.8-1
		c0-0.4-2.1-2-3-2.8c-0.8-0.8-2.4-2.4-2.8-2.8C178.9,135.5,178.6,135.5,178.6,135.9z"/>
	<path style="opacity:0.9482;fill:#FFFFFF;" d="M178.6,135.9c0,0.2,0.9,7.5,2.7,7.3c0.4,0,0.8-0.5,1.6-0.9c0.9-0.5,1.8-0.6,1.8-1
		c0-0.4-2.1-2-2.9-2.8c-0.8-0.8-2.4-2.4-2.8-2.8C178.9,135.5,178.6,135.5,178.6,135.9z"/>
	<path style="opacity:0.9522;fill:#FFFFFF;" d="M178.6,135.9c0,0.2,0.9,7.4,2.7,7.3c0.3,0,0.8-0.5,1.5-0.9c0.9-0.5,1.8-0.6,1.8-1
		c0-0.4-2-2-2.9-2.8c-0.8-0.8-2.4-2.3-2.8-2.8C178.9,135.5,178.6,135.5,178.6,135.9z"/>
	<path style="opacity:0.9562;fill:#FFFFFF;" d="M178.6,135.9c0,0.2,0.9,7.4,2.7,7.3c0.3,0,0.8-0.5,1.5-0.9c0.9-0.5,1.7-0.6,1.7-1
		c0-0.4-2-2-2.9-2.8c-0.8-0.8-2.4-2.3-2.8-2.8C178.9,135.6,178.6,135.5,178.6,135.9z"/>
	<path style="opacity:0.9602;fill:#FFFFFF;" d="M178.6,135.9c0,0.2,0.9,7.4,2.7,7.2c0.3,0,0.8-0.5,1.5-0.9c0.9-0.5,1.7-0.6,1.7-1
		c0-0.4-2-2-2.9-2.8c-0.8-0.8-2.4-2.3-2.8-2.8C178.9,135.6,178.6,135.5,178.6,135.9z"/>
	<path style="opacity:0.9641;fill:#FFFFFF;" d="M178.6,135.9c0,0.2,0.9,7.3,2.7,7.2c0.3,0,0.8-0.5,1.5-0.9c0.9-0.5,1.7-0.6,1.7-1
		c0-0.4-2-2-2.8-2.7c-0.8-0.8-2.4-2.3-2.8-2.8C178.9,135.6,178.6,135.5,178.6,135.9z"/>
	<path style="opacity:0.9681;fill:#FFFFFF;" d="M178.6,135.9c0,0.2,0.9,7.3,2.7,7.2c0.3,0,0.8-0.5,1.5-0.9c0.9-0.5,1.7-0.6,1.7-1
		c0-0.4-2-2-2.8-2.7c-0.8-0.8-2.3-2.3-2.7-2.8C178.9,135.6,178.6,135.5,178.6,135.9z"/>
	<path style="opacity:0.9721;fill:#FFFFFF;" d="M178.6,135.9c0,0.2,0.9,7.3,2.7,7.1c0.3,0,0.8-0.5,1.5-0.9c0.8-0.5,1.7-0.6,1.7-1
		c0-0.4-2-2-2.8-2.7c-0.8-0.7-2.3-2.3-2.7-2.7C178.9,135.6,178.6,135.6,178.6,135.9z"/>
	<path style="opacity:0.9761;fill:#FFFFFF;" d="M178.6,135.9c0,0.2,0.9,7.2,2.7,7.1c0.3,0,0.8-0.5,1.5-0.9c0.8-0.5,1.6-0.6,1.7-1
		c0-0.4-2-2-2.7-2.7c-0.8-0.7-2.3-2.3-2.7-2.7C178.9,135.6,178.6,135.6,178.6,135.9z"/>
	<path style="opacity:0.9801;fill:#FFFFFF;" d="M178.6,135.9c0,0.2,0.9,7.2,2.7,7.1c0.3,0,0.7-0.5,1.5-0.9c0.8-0.5,1.6-0.6,1.6-1
		c0-0.4-1.9-2-2.7-2.7c-0.8-0.7-2.3-2.3-2.7-2.7C178.9,135.6,178.6,135.6,178.6,135.9z"/>
	<path style="opacity:0.9841;fill:#FFFFFF;" d="M178.6,135.9c0,0.2,0.9,7.2,2.7,7c0.3,0,0.7-0.5,1.5-0.9c0.8-0.5,1.6-0.6,1.6-1
		c0-0.4-1.9-2-2.7-2.7c-0.8-0.7-2.3-2.3-2.7-2.7C178.9,135.6,178.6,135.6,178.6,135.9z"/>
	<path style="opacity:0.988;fill:#FFFFFF;" d="M178.6,135.9c0,0.2,0.9,7.1,2.7,7c0.3,0,0.7-0.5,1.4-0.9c0.8-0.5,1.6-0.6,1.6-1
		c0-0.4-1.9-2-2.7-2.6c-0.8-0.7-2.3-2.2-2.7-2.7C178.9,135.6,178.6,135.6,178.6,135.9z"/>
	<path style="opacity:0.992;fill:#FFFFFF;" d="M178.6,135.9c0,0.2,0.9,7.1,2.6,7c0.3,0,0.7-0.5,1.4-0.9c0.8-0.5,1.6-0.6,1.6-0.9
		c0-0.4-1.9-1.9-2.6-2.6c-0.8-0.7-2.3-2.2-2.7-2.7C178.9,135.6,178.6,135.6,178.6,135.9z"/>
	<path style="opacity:0.996;fill:#FFFFFF;" d="M178.6,135.9c0,0.2,0.9,7.1,2.6,6.9c0.3,0,0.7-0.5,1.4-0.9c0.8-0.5,1.6-0.6,1.6-0.9
		c0-0.4-1.9-1.9-2.6-2.6c-0.8-0.7-2.3-2.2-2.7-2.7C178.9,135.6,178.6,135.6,178.6,135.9z"/>
	<path id="XMLID_00000178187737099847661990000013564136693155501457_" style="fill:#FFFFFF;" d="M178.6,135.9c0,0.2,0.9,7,2.6,6.9
		c0.3,0,0.7-0.5,1.4-0.9c0.7-0.5,1.5-0.6,1.5-0.9c0-0.4-1.9-1.9-2.6-2.6c-0.8-0.7-2.2-2.2-2.7-2.7
		C178.9,135.6,178.6,135.6,178.6,135.9z"/>
</g>
<radialGradient id="SVGID_1_" cx="1583.6428" cy="908.4622" r="49.4939" fx="1584.4191" fy="877.34" gradientTransform="matrix(0.9192 -0.4371 8.444938e-02 0.1776 -1370.8463 703.2223)" gradientUnits="userSpaceOnUse">
	<stop  offset="0.2401" style="stop-color:#FFAD7F"/>
	<stop  offset="0.7216" style="stop-color:#FF782F"/>
	<stop  offset="1" style="stop-color:#FF5A00"/>
</radialGradient>
<path style="fill:url(#SVGID_1_);" d="M209.8,150.8c2.7,5.7-16.8,20.6-43.6,33.3c-26.8,12.7-50.6,18.4-53.3,12.8
	c-2.7-5.7,16.8-20.6,43.6-33.3C183.2,150.8,207.1,145.1,209.8,150.8z"/>
</svg>
