<svg width="102" height="28" viewBox="0 0 102 28" fill="none" xmlns="http://www.w3.org/2000/svg">
    <path d="M100.601 9.87631C100.582 9.85583 100.568 9.84102 95.8206 5.23091L95.777 5.19127C95.5152 4.96952 95.0564 4.70508 94.3594 4.70508H82.8027C82.1166 4.70508 81.5128 4.97693 81.1107 5.45048L80.8702 5.22307L80.8345 5.19127C80.5726 4.96952 80.1139 4.70508 79.4168 4.70508H67.8602C67.0473 4.70508 66.3685 5.07582 65.9856 5.70142L65.4741 5.22089L65.4406 5.19127C65.1787 4.96952 64.72 4.70508 64.023 4.70508H61.5532L57.0738 0.439141L57.0307 0.407338C56.6652 0.137232 56.2217 0 55.7128 0H53.1847C52.1444 0 51.3297 0.622552 51.0661 1.56444L49.7535 0.431735L49.703 0.393833C49.3292 0.132875 48.8831 0.000436081 48.3773 0.000436081H45.0593C44.0272 0.000436081 43.2169 0.613403 42.9468 1.54266L41.6908 0.450468L41.6372 0.407773C41.2717 0.137667 40.8282 0.000436081 40.3194 0.000436081H37.7913C36.747 0.000436081 35.9302 0.62778 35.6696 1.57489L34.3474 0.420408L34.3091 0.393833C33.9349 0.132875 33.4892 0.000436081 32.9838 0.000436081H29.6659C28.6355 0.000436081 27.8265 0.610789 27.5551 1.53743L26.2956 0.449161L26.2442 0.407773C25.8787 0.137667 25.4352 0.000871497 24.9264 0.000871497H22.4436C21.6354 0.000871497 20.9567 0.369871 20.5724 0.992423L19.9412 0.448725L19.898 0.413873C19.5356 0.140281 19.0934 0.00130691 18.5841 0.00130691H15.8983C14.9181 0.00130691 14.1125 0.537163 13.7788 1.37144L12.6971 0.433913L12.647 0.396447C12.2793 0.138103 11.8267 0.00130691 11.3387 0.00130691H9.39744C8.42898 0.00130691 7.63391 0.527579 7.28582 1.3697L6.20583 0.433478L6.15268 0.393833C5.78325 0.137232 5.32842 0.00130691 4.83787 0.00130691H2.15206C1.30558 0.00130691 0.79325 0.37902 0.512252 0.695742C0.23169 1.01246 -0.0819817 1.56618 0.019526 2.40656L1.78306 16.8655C1.83839 17.3609 2.04271 17.8 2.37337 18.135L6.91029 22.5473L6.9386 22.5739C7.45268 23.0309 7.89269 23.2958 8.62023 23.2958H11.8027C12.7089 23.2958 13.4612 22.8296 13.8494 22.052L14.3556 22.5434C14.8083 22.9948 15.2692 23.2954 16.046 23.2954H19.2284C20.318 23.2954 21.1902 22.6271 21.4494 21.5963L21.8354 20.1212C22.7468 21.0086 24.3051 22.5251 24.4415 22.6597C24.7181 22.9512 25.2117 23.2954 25.9998 23.2954H28.4826C29.5561 23.2954 30.3891 22.6327 30.6247 21.6407C31.2286 22.2315 31.6037 22.5996 31.662 22.6576C31.9382 22.9494 32.4327 23.2954 33.2221 23.2954H35.7502C36.8298 23.2954 37.6658 22.6253 37.8963 21.6242L38.8451 22.543C39.3875 23.091 39.8524 23.2949 40.5581 23.2949H43.8761C44.9473 23.2949 45.7795 22.6345 46.0169 21.6455C46.6268 22.2389 46.9967 22.5987 47.0568 22.6584C47.3334 22.9499 47.827 23.2949 48.616 23.2949H51.1441C52.2184 23.2949 53.0518 22.6314 53.2867 21.6381L54.2185 22.5434C54.7609 23.0841 55.2471 23.2949 55.9516 23.2949H59.1157L63.2274 27.3705C63.4557 27.6075 63.9598 28 64.7919 28H67.5796C68.7921 28 69.6978 27.1548 69.7823 25.9441L69.9814 23.0976C70.4118 23.5167 71.5136 24.588 74.3597 27.3509L74.3606 27.3517C74.6364 27.6476 75.133 28 75.9307 28H78.4588C79.6708 28 80.577 27.1548 80.6615 25.9441L81.3511 16.0822H84.4613L84.1032 21.2064C84.0474 22.0041 84.365 22.5242 84.6412 22.8209C84.6573 22.8384 84.6918 22.875 89.2818 27.3722C89.4308 27.5243 89.9697 28 90.8728 28H93.4009C94.6134 28 95.5191 27.1548 95.6036 25.9441L96.2933 16.0822H98.7486C99.961 16.0822 100.867 15.237 100.951 14.0268L101.128 11.4987C101.173 10.8565 100.99 10.2954 100.6 9.87674L100.601 9.87631ZM99.4047 11.3776L99.2278 13.9057C99.206 14.215 99.0588 14.3531 98.7499 14.3531H95.5901C95.472 14.3531 95.3614 14.3675 95.2612 14.3962L94.839 14.5165L94.687 14.9282C94.6504 15.0275 94.6273 15.139 94.619 15.2601L93.8802 25.8235C93.8584 26.1328 93.7111 26.2709 93.4022 26.2709H90.8741C90.6428 26.2709 90.5313 26.1746 90.5195 26.1637L90.5012 26.145C88.8819 24.5583 86.1181 21.8494 85.9003 21.6338C85.8436 21.5676 85.8197 21.4643 85.8292 21.3266L86.3167 14.3531H80.6436C80.5278 14.3531 80.4188 14.3679 80.3208 14.3954L79.8965 14.5152L79.7444 14.9286C79.7078 15.0279 79.6852 15.1395 79.6769 15.2597L78.938 25.823C78.9163 26.1323 78.769 26.2705 78.4601 26.2705H75.932C75.7194 26.2705 75.6497 26.1968 75.6266 26.1724L75.5852 26.1289C74.0731 24.6607 71.1908 21.8621 70.9577 21.6329C70.9011 21.5667 70.8776 21.4639 70.8871 21.3266L71.3746 14.3527H68.8609L68.0589 25.823C68.0371 26.1323 67.8898 26.2705 67.5809 26.2705H65.0982C64.8947 26.2705 64.8071 26.2003 64.7784 26.1698L59.903 21.4338L59.4394 21.5462C59.3876 21.5588 59.3309 21.5649 59.2708 21.5649H55.9529C55.7385 21.5649 55.6876 21.5649 55.4375 21.3149L51.8534 17.8336L51.6238 21.1175C51.602 21.4268 51.4547 21.5649 51.1459 21.5649H48.6177C48.4038 21.5649 48.3346 21.4909 48.3123 21.4669C48.2945 21.4477 48.2649 21.4159 45.9202 19.1375L44.5853 17.8401L44.3562 21.118C44.3344 21.4273 44.1871 21.5654 43.8783 21.5654H40.5603C40.3451 21.5654 40.312 21.5654 40.0711 21.321L36.4608 17.8235L36.2303 21.118C36.2085 21.4273 36.0613 21.5654 35.7524 21.5654H33.2243C33.0104 21.5654 32.9411 21.4913 32.918 21.4665C32.901 21.4482 32.8692 21.4142 30.5293 19.1261L29.1932 17.8192L28.9627 21.118C28.9409 21.4273 28.7937 21.5654 28.4848 21.5654H26.002C25.7881 21.5654 25.7188 21.4913 25.6957 21.4665C25.6779 21.4473 25.6474 21.4151 21.98 17.8462L20.9166 16.8115L19.7778 21.162L19.7761 21.1689C19.7103 21.4321 19.5269 21.5658 19.2306 21.5658H16.0482C15.8756 21.5658 15.8151 21.5549 15.5759 21.3157L13.0321 18.8451L12.3534 21.1576C12.2662 21.4399 12.0968 21.5658 11.8049 21.5658H8.62241C8.46514 21.5658 8.41155 21.5658 8.10311 21.2931L3.60148 16.9152C3.54703 16.8577 3.51479 16.7775 3.50259 16.6669L1.73775 2.19745C1.71815 2.03582 1.74211 1.91645 1.80789 1.84195C1.87411 1.76702 1.99043 1.72912 2.1538 1.72912H4.83962C4.95855 1.72912 5.06441 1.75264 5.14065 1.79577L8.29828 4.53387L8.85418 2.12338C8.9204 1.86199 9.10381 1.72955 9.39875 1.72955H11.34C11.4542 1.72955 11.5557 1.75221 11.6289 1.79403L14.8462 4.58309L15.3546 2.12208L15.3563 2.11249C15.4169 1.79621 15.6848 1.72955 15.8992 1.72955H18.585C18.6965 1.72955 18.7876 1.74872 18.8433 1.78357L21.8149 4.34392L21.9665 2.17697C21.9883 1.86765 22.1356 1.72955 22.4444 1.72955H24.9272C25.0449 1.72955 25.139 1.74916 25.2008 1.78662L28.9876 5.05927L29.1893 2.17653C29.211 1.86722 29.3583 1.72912 29.6672 1.72912H32.9851C33.1136 1.72912 33.2173 1.7509 33.2936 1.79403L37.1086 5.12418L37.3147 2.1761C37.3365 1.86678 37.4837 1.72868 37.7926 1.72868H40.3207C40.4379 1.72868 40.5315 1.74829 40.5934 1.78532L44.3797 5.07713L44.5827 2.1761C44.6045 1.86678 44.7517 1.72868 45.0606 1.72868H48.3786C48.508 1.72868 48.6121 1.7509 48.6883 1.79446L52.5042 5.08758L52.7077 2.17566C52.7295 1.86635 52.8767 1.72825 53.1856 1.72825H55.7137C55.8239 1.72825 55.9137 1.74567 55.9755 1.77878L60.9211 6.48821L61.3158 6.44901C61.399 6.44073 61.5066 6.43332 61.5415 6.43332H64.0243C64.1532 6.43332 64.253 6.45685 64.314 6.50172L67.2189 9.2311L67.3832 6.88074C67.4049 6.57142 67.5522 6.43332 67.8611 6.43332H79.4177C79.5462 6.43332 79.646 6.45685 79.7065 6.50128L82.1872 8.84903L82.3248 6.88074C82.3466 6.57142 82.4939 6.43332 82.8027 6.43332H94.3594C94.4862 6.43332 94.5846 6.45598 94.6456 6.49911C95.1693 7.00752 99.0536 10.7799 99.3446 11.0639C99.369 11.0927 99.4191 11.168 99.4047 11.3771V11.3776Z" fill="white"/>
    <path d="M99.9683 10.4658C99.9496 10.4457 95.2184 5.85131 95.2184 5.85131C95.0498 5.70841 94.7784 5.56988 94.3597 5.56988H82.8031C82.042 5.56988 81.5157 6.0613 81.4626 6.82151L81.4525 6.96441L80.2763 5.85131C80.1077 5.70841 79.8363 5.56988 79.4176 5.56988H67.861C67.0999 5.56988 66.5736 6.0613 66.5205 6.82151L66.483 7.35519L64.8828 5.85174C64.7142 5.70885 64.4428 5.57031 64.0242 5.57031H61.5414C61.4307 5.57031 61.2299 5.59035 61.2299 5.59035L56.5178 1.1031C56.347 0.976762 56.0896 0.865234 55.7136 0.865234H53.1855C52.4244 0.865234 51.8981 1.35665 51.845 2.11687L51.7618 3.30665L49.2084 1.1031C48.9836 0.946267 48.7048 0.865234 48.3776 0.865234H45.0596C44.2986 0.865234 43.7723 1.35665 43.7191 2.11687L43.6372 3.28835L41.1239 1.1031C40.9532 0.976762 40.6957 0.865234 40.3197 0.865234H37.7916C37.0305 0.865234 36.5042 1.35665 36.4511 2.11687L36.3661 3.33061L33.8145 1.1031C33.5897 0.946267 33.3109 0.865234 32.9837 0.865234H29.6658C28.9047 0.865234 28.3784 1.35665 28.3252 2.11687L28.2442 3.27615L25.7301 1.1031C25.5593 0.976762 25.3018 0.865234 24.9258 0.865234H22.443C21.6819 0.865234 21.1557 1.35665 21.1025 2.11687L21.0712 2.56385L19.376 1.1031C19.2035 0.972842 18.9499 0.865234 18.5831 0.865234H15.8973C15.1776 0.865234 14.6322 1.29043 14.5058 1.94958L14.2963 2.96422L12.1494 1.1031C11.9315 0.950187 11.6549 0.865234 11.3382 0.865234H9.3969C8.7029 0.865234 8.17184 1.26996 8.01152 1.9217L7.7767 2.93939L5.65898 1.1031C5.43984 0.951059 5.15928 0.865234 4.83733 0.865234H2.15152C1.62655 0.865234 1.32203 1.08481 1.15866 1.26865C0.995723 1.4525 0.814491 1.78098 0.877225 2.30115L2.64119 16.7662C2.67517 17.0751 2.79803 17.3343 2.98797 17.5269L7.51225 21.927C7.90434 22.2755 8.15354 22.4302 8.61969 22.4302H11.8022C12.4783 22.4302 12.9802 22.0568 13.1788 21.4059L13.4555 20.4636L14.962 21.927C15.3105 22.2755 15.5784 22.4302 16.0454 22.4302H19.2279C19.9202 22.4302 20.4499 22.0272 20.612 21.3785L21.3744 18.4661C21.3744 18.4661 25.0278 22.0207 25.0609 22.0568C25.2199 22.2272 25.5118 22.4306 25.9989 22.4306H28.4817C29.2427 22.4306 29.769 21.9392 29.8222 21.179L29.9224 19.7448C29.9224 19.7448 32.2496 22.0207 32.2832 22.0568C32.4422 22.2272 32.7341 22.4306 33.2211 22.4306H35.7492C36.5103 22.4306 37.0366 21.9392 37.0898 21.179L37.1904 19.7378L39.4519 21.9283C39.837 22.3191 40.0801 22.4306 40.5567 22.4306H43.8747C44.6357 22.4306 45.162 21.9392 45.2152 21.179L45.3145 19.7583C45.3145 19.7583 47.6431 22.0215 47.6766 22.0572C47.8356 22.2276 48.1275 22.431 48.6146 22.431H51.1427C51.9038 22.431 52.4301 21.9396 52.4832 21.1794L52.583 19.7518L54.8235 21.9279C55.2156 22.3199 55.4749 22.431 55.9506 22.431H59.3805L63.842 26.7636C64.0015 26.9335 64.3073 27.1361 64.7913 27.1361H67.5791C68.3402 27.1361 68.8665 26.6447 68.9196 25.8845L69.6655 15.2183H70.4461L70.0231 21.2674C69.9891 21.7549 70.1717 22.0607 70.3307 22.2315C70.3699 22.2738 74.9813 26.7501 74.9813 26.7501C74.9848 26.754 74.9887 26.7584 74.9922 26.7623C75.1512 26.9327 75.4431 27.1361 75.9302 27.1361H78.4583C79.2194 27.1361 79.7452 26.6447 79.7988 25.8845L80.5377 15.3211C80.5411 15.271 80.549 15.2423 80.5542 15.2284C80.5695 15.224 80.5995 15.2188 80.6448 15.2183H85.3882L84.9652 21.2674C84.9312 21.7549 85.1138 22.0607 85.2728 22.2315C85.3094 22.2707 89.8942 26.7632 89.8942 26.7632C90.055 26.9318 90.3935 27.1357 90.8723 27.1357H93.4004C94.1615 27.1357 94.6877 26.6443 94.7409 25.884L95.4798 15.3207C95.4832 15.2706 95.4911 15.2419 95.4963 15.2279C95.512 15.2236 95.5421 15.2179 95.5882 15.2179H98.7481C99.5091 15.2179 100.035 14.7265 100.089 13.9663L100.265 11.4382C100.294 11.0356 100.193 10.7084 99.967 10.4658H99.9683Z" fill="#F0436C"/>
    <path d="M19.1421 2.22661L15.3541 16.6947C15.2596 17.0785 14.9747 17.2815 14.5682 17.2815H11.3857C10.9793 17.2815 10.7453 17.0785 10.6821 16.6947L9.82914 11.1423C9.79995 10.9166 9.61915 10.9166 9.55816 11.1423L7.92837 16.6947C7.81118 17.0785 7.54892 17.2815 7.14245 17.2815H3.95999C3.55352 17.2815 3.29692 17.0785 3.25597 16.6947L1.49156 2.22661C1.43449 1.75261 1.6789 1.48164 2.15289 1.48164H4.8387C5.24517 1.48164 5.52399 1.68465 5.54272 2.06846L6.17094 11.4808C6.20013 11.7065 6.38092 11.7065 6.44191 11.4808L8.61235 2.06846C8.70689 1.68465 8.99181 1.48164 9.39827 1.48164H11.3396C11.746 1.48164 12.0026 1.68465 12.0436 2.06846L12.8975 11.4808C12.9266 11.7065 13.1074 11.7065 13.1684 11.4808L15.1132 2.06846C15.1851 1.68465 15.4927 1.48164 15.8991 1.48164H18.5849C19.0589 1.48164 19.2659 1.75261 19.1421 2.22661ZM24.9272 1.48164H22.4444C22.0157 1.48164 21.7517 1.70731 21.7199 2.15865L20.7096 16.6041C20.6796 17.0328 20.9105 17.2811 21.3396 17.2811H23.8224C24.2737 17.2811 24.5168 17.0328 24.5469 16.6041L25.5572 2.15865C25.5885 1.70731 25.379 1.48164 24.9272 1.48164ZM40.3207 1.48164H37.7925C37.3639 1.48164 37.0999 1.70731 37.068 2.15865L36.5583 9.44934C36.5426 9.67501 36.3588 9.72031 36.2826 9.51686L33.7383 2.0005C33.6055 1.63934 33.3685 1.4812 32.9847 1.4812H29.6667C29.238 1.4812 28.974 1.70687 28.9422 2.15821L27.9319 16.6037C27.9019 17.0324 28.1328 17.2807 28.5619 17.2807H31.09C31.5413 17.2807 31.7844 17.0324 31.8145 16.6037L32.3242 9.31341C32.3399 9.08774 32.5237 9.04243 32.6 9.24589L35.1442 16.7622C35.2771 17.1234 35.5141 17.2815 35.8979 17.2815H39.2158C39.6672 17.2815 39.9103 17.0332 39.9403 16.6045L40.9506 2.15908C40.982 1.70774 40.7724 1.48207 40.3207 1.48207V1.48164ZM55.7141 1.48164H53.186C52.7573 1.48164 52.4929 1.70731 52.4615 2.15865L51.9518 9.44934C51.9361 9.67501 51.7522 9.72031 51.676 9.51686L49.1318 2.0005C48.9989 1.63934 48.7619 1.4812 48.3781 1.4812H45.0601C44.6315 1.4812 44.3675 1.70687 44.3357 2.15821L43.3254 16.6037C43.2953 17.0324 43.5262 17.2807 43.9553 17.2807H46.4834C46.9348 17.2807 47.1779 17.0324 47.2079 16.6037L47.7176 9.31341C47.7333 9.08774 47.9172 9.04243 47.9934 9.24589L50.5376 16.7622C50.6705 17.1234 50.9075 17.2815 51.2913 17.2815H54.6093C55.0606 17.2815 55.3037 17.0332 55.3338 16.6045L56.344 2.15908C56.3754 1.70774 56.1659 1.48207 55.7141 1.48207V1.48164ZM64.0682 6.31741H61.5854C61.1567 6.31741 60.8923 6.54308 60.8609 6.99442L59.8506 21.4399C59.8206 21.8686 60.0515 22.1169 60.4806 22.1169H62.9634C63.4147 22.1169 63.6578 21.8686 63.6879 21.4399L64.6982 6.99442C64.7295 6.54308 64.52 6.31741 64.0682 6.31741ZM79.4617 6.31741H67.905C67.4763 6.31741 67.2119 6.54308 67.1805 6.99442L67.0037 9.52253C66.9736 9.95121 67.2045 10.1995 67.6336 10.1995H70.7934C71.2448 10.1995 71.4548 10.4252 71.4234 10.8765L70.6845 21.4399C70.6545 21.8686 70.8854 22.1169 71.3145 22.1169H73.8426C74.2939 22.1169 74.537 21.8686 74.5671 21.4399L75.3059 10.8765C75.3373 10.4252 75.6018 10.1995 76.0304 10.1995H79.1907C79.642 10.1995 79.8851 9.95121 79.9152 9.52253L80.0921 6.99442C80.1234 6.54308 79.9134 6.31741 79.4621 6.31741H79.4617ZM94.4033 6.31741H82.8467C82.418 6.31741 82.154 6.54308 82.1222 6.99442L81.9453 9.52253C81.9153 9.95121 82.1462 10.1995 82.5753 10.1995H85.7351C86.1864 10.1995 86.3964 10.4252 86.3651 10.8765L85.6262 21.4399C85.5961 21.8686 85.827 22.1169 86.2561 22.1169H88.7842C89.2356 22.1169 89.4787 21.8686 89.5087 21.4399L90.2476 10.8765C90.279 10.4252 90.5434 10.1995 90.9721 10.1995H94.1319C94.5833 10.1995 94.8264 9.95121 94.8564 9.52253L95.0333 6.99442C95.0647 6.54308 94.8551 6.31741 94.4033 6.31741Z" fill="white"/>
</svg>
